<?xml version="1.0" ?>

<!DOCTYPE svg  PUBLIC '-//W3C//DTD SVG 1.1//EN'  'http://www.w3.org/Graphics/SVG/1.1/DTD/svg11.dtd'>

<!-- License: CC0 License. Made by SVG Repo: https://www.svgrepo.com/svg/424465/delivery-shipment-shipping -->
<svg width="800px" height="800px" viewBox="0 0 32 32" enable-background="new 0 0 32 32" version="1.1" xml:space="preserve" xmlns="http://www.w3.org/2000/svg" xmlns:xlink="http://www.w3.org/1999/xlink">

<g id="Layer_1"/>

<g id="Layer_2">

<g>

<polyline fill="none" points="    21,24 18,24 18,6 25,6 30,16 30,24 27,24   " stroke="#000000" stroke-linecap="round" stroke-linejoin="round" stroke-miterlimit="10" stroke-width="2"/>

<polyline fill="none" points="    5,24 2,24 2,18 18,18 18,24 11,24   " stroke="#000000" stroke-linecap="round" stroke-linejoin="round" stroke-miterlimit="10" stroke-width="2"/>

<circle cx="24" cy="24" fill="none" r="3" stroke="#000000" stroke-linecap="round" stroke-linejoin="round" stroke-miterlimit="10" stroke-width="2"/>

<circle cx="8" cy="24" fill="none" r="3" stroke="#000000" stroke-linecap="round" stroke-linejoin="round" stroke-miterlimit="10" stroke-width="2"/>

<path d="    M5,14L5,14c-1.1,0-2-0.9-2-2V8c0-1.1,0.9-2,2-2h0c1.1,0,2,0.9,2,2v4C7,13.1,6.1,14,5,14z" fill="none" stroke="#000000" stroke-linecap="round" stroke-linejoin="round" stroke-miterlimit="10" stroke-width="2"/>

<g>

<circle cx="10.5" cy="6.5" r="1.5"/>

</g>

<g>

<circle cx="14.5" cy="13.5" r="1.5"/>

</g>

<line fill="none" stroke="#000000" stroke-linecap="round" stroke-linejoin="round" stroke-miterlimit="10" stroke-width="2" x1="15" x2="10" y1="6" y2="14"/>

<polyline fill="none" points="    21,6 21,14 29,14   " stroke="#000000" stroke-linecap="round" stroke-linejoin="round" stroke-miterlimit="10" stroke-width="2"/>

</g>

</g>

</svg>