<?xml version="1.0" encoding="iso-8859-1"?>
<!-- Generator: Adobe Illustrator 19.0.0, SVG Export Plug-In . SVG Version: 6.00 Build 0)  -->
<!-- License: CC0. Made by SVG Repo: https://www.svgrepo.com/svg/196609/delivery-truck-truck -->
<svg version="1.1" id="Layer_1" xmlns="http://www.w3.org/2000/svg" xmlns:xlink="http://www.w3.org/1999/xlink" x="0px" y="0px"
	 viewBox="0 0 413.072 413.072" style="enable-background:new 0 0 413.072 413.072;" xml:space="preserve">
<g>
	<g>
		<path d="M405.572,294.371h-4.349v-47.523c0-0.928-0.172-1.848-0.508-2.713l-27.178-70.034c-1.12-2.885-3.897-4.787-6.992-4.787
			h-79.991v-3.283h5.943c4.143,0,7.5-3.358,7.5-7.5v-58.454c0-4.142-3.357-7.5-7.5-7.5h-79.053
			c6.138-4.264,11.382-9.35,15.667-15.282c18.165-25.149,12.244-55.639,11.983-56.925c-0.407-2.007-1.617-3.759-3.349-4.852
			c-1.732-1.093-3.836-1.429-5.821-0.933c-25.2,6.3-45.286,22.994-58.086,48.276c-1.583,3.128-2.958,6.199-4.158,9.155
			c-4.768-4.935-11.447-8.012-18.834-8.012h-1.694c-7.388,0-14.067,3.078-18.835,8.013c-1.199-2.956-2.574-6.028-4.158-9.156
			C113.36,37.579,93.274,20.886,68.073,14.585c-1.985-0.496-4.089-0.159-5.821,0.933c-1.731,1.092-2.941,2.845-3.349,4.852
			c-0.261,1.286-6.182,31.776,11.983,56.925c4.285,5.932,9.528,11.018,15.667,15.282H7.5c-4.143,0-7.5,3.358-7.5,7.5v58.454
			c0,4.142,3.357,7.5,7.5,7.5h5.943v128.444c-3.574,0.573-6.307,3.661-6.307,7.396v34.871c0,4.142,3.357,7.5,7.5,7.5h36.982
			c-0.032,0.745-0.057,1.491-0.057,2.243c0,28.734,23.377,52.112,52.111,52.112s52.111-23.377,52.111-52.112
			c0-0.752-0.025-1.499-0.057-2.243H277.56c-0.033,0.763-0.058,1.529-0.058,2.3c0,28.766,23.377,52.168,52.111,52.168
			c28.734,0,52.111-23.402,52.111-52.168c0-0.771-0.025-1.537-0.058-2.3h23.906c4.143,0,7.5-3.358,7.5-7.5v-34.871
			C413.072,297.729,409.715,294.371,405.572,294.371z M323.873,184.313h37.538l21.357,55.034h-58.895V184.313z M286.555,184.314
			h22.318v62.534c0,4.142,3.357,7.5,7.5,7.5h69.851v40.023h-99.669V184.314z M187.432,69.225
			c9.433-18.422,22.784-30.99,39.765-37.464c0.271,9.086-1.021,23.981-10.245,36.751c-8.043,11.136-20.729,18.635-37.797,22.365
			C180.718,85.047,183.302,77.29,187.432,69.225z M177.053,107.577h107.945v43.454h-5.875c-0.023,0-0.045-0.003-0.068-0.003
			c-0.023,0-0.045,0.003-0.068,0.003H177.053V107.577z M177.053,166.031h94.502v10.783v117.557h-94.502V166.031z M137.945,90.211
			c0-6.18,5.028-11.207,11.207-11.207h1.694c6.179,0,11.206,5.027,11.206,11.207v2.366h-24.107V90.211z M162.053,166.031v128.34
			h-24.107v-128.34H162.053z M137.945,107.577h24.107v43.454h-24.107V107.577z M83.129,68.626
			c-9.23-12.701-10.544-27.706-10.296-36.853c16.967,6.478,30.308,19.042,39.733,37.452c4.131,8.066,6.714,15.822,8.277,21.653
			C103.835,87.16,91.176,79.699,83.129,68.626z M20.943,151.028c-0.023,0-0.045,0.003-0.068,0.003H15v-43.454h107.945v43.454H21.011
			C20.988,151.031,20.966,151.028,20.943,151.028z M122.945,166.031v128.34H28.443v-128.34H122.945z M22.137,329.241v-19.868h44.999
			c-5.606,5.52-9.966,12.297-12.629,19.868H22.137z M103.673,383.596c-20.463,0-37.111-16.648-37.111-37.112
			s16.648-37.111,37.111-37.111c20.463,0,37.111,16.648,37.111,37.111C140.784,366.947,124.136,383.596,103.673,383.596z
			 M152.839,329.241c-2.663-7.572-7.023-14.348-12.629-19.868h29.343h75.741h33.761h14.039c-5.605,5.52-9.966,12.296-12.634,19.868
			H152.839z M329.613,383.709c-20.463,0-37.111-16.673-37.111-37.168s16.648-37.168,37.111-37.168
			c20.463,0,37.111,16.673,37.111,37.168S350.076,383.709,329.613,383.709z M378.767,329.241
			c-2.667-7.572-7.029-14.348-12.634-19.868h27.59c0.016,0,0.032-0.002,0.048-0.002h4.3v19.87H378.767z"/>
	</g>
</g>
<g>
	<g>
		<path d="M108.979,341.184c-1.4-1.4-3.331-2.2-5.31-2.2c-1.97,0-3.9,0.8-5.3,2.2c-1.4,1.39-2.2,3.33-2.2,5.3
			c0,1.97,0.8,3.91,2.2,5.3c1.399,1.4,3.33,2.2,5.3,2.2c1.979,0,3.91-0.8,5.31-2.2c1.391-1.39,2.19-3.33,2.19-5.3
			C111.169,344.514,110.369,342.574,108.979,341.184z"/>
	</g>
</g>
<g>
	<g>
		<path d="M334.919,341.234c-1.4-1.39-3.33-2.19-5.311-2.19c-1.97,0-3.899,0.8-5.3,2.19c-1.399,1.4-2.2,3.33-2.2,5.31
			c0,1.97,0.801,3.9,2.2,5.3c1.4,1.4,3.33,2.2,5.3,2.2c1.98,0,3.91-0.8,5.311-2.2c1.39-1.4,2.189-3.33,2.189-5.3
			C337.108,344.564,336.308,342.634,334.919,341.234z"/>
	</g>
</g>
</svg>
