<?xml version="1.0" ?>

<!-- License: CC Attribution. Made by Rudy Muhardika: https://dribbble.com/rudymuhardika -->
<svg width="800px" height="800px" viewBox="0 0 50 50" id="Message_And_Communication_Icons" version="1.1" xml:space="preserve" xmlns="http://www.w3.org/2000/svg" xmlns:xlink="http://www.w3.org/1999/xlink">

<g>

<g>

<g>

<path d="M29.1,9.2c1.5,1.6,2.4,3.8,2.4,6.1c-0.1,4.9-4.1,8.9-9,8.8c-1,0-2-0.2-2.9-0.5     c1.6,1.8,3.9,2.9,6.5,2.9c4.9,0.1,9-3.9,9-8.8C35.1,13.8,32.6,10.5,29.1,9.2z" style="fill:#4DE0F9;"/>

</g>

</g>

<g>

<g>

<path d="M24.9,25.9c0,0-0.1,0-0.1,0c-2.5,0-4.9-1-6.7-2.9s-2.7-4.2-2.7-6.8c0.1-5.2,4.3-9.4,9.5-9.4     c0,0,0.1,0,0.1,0c5.2,0.1,9.5,4.4,9.4,9.6v0C34.4,21.7,30.1,25.9,24.9,25.9z M24.9,8.1c-4.5,0-8.3,3.7-8.3,8.2     c0,2.2,0.8,4.3,2.4,5.9c1.6,1.6,3.6,2.5,5.9,2.5c0,0,0.1,0,0.1,0c4.5,0,8.3-3.7,8.3-8.2v0C33.3,11.9,29.6,8.1,24.9,8.1     C25,8.1,25,8.1,24.9,8.1z" style="fill:#0D5FC3;"/>

</g>

</g>

<g>

<g>

<path d="M37.7,40.6c0.1-4.8-2.9-9-7.1-10.8c2.2,2.1,3.6,5.1,3.5,8.4l0,2.9H17v2.4h20.7L37.7,40.6z" style="fill:#4DE0F9;"/>

</g>

</g>

<g>

<g>

<path d="M35.9,42.3l0-2.9c0-2.9-1.1-5.7-3.1-7.8c-2.1-2.1-4.8-3.3-7.7-3.3c0,0-0.1,0-0.1,0     c-2.9,0-5.6,1.1-7.7,3.1c-2.1,2.1-3.3,4.8-3.3,7.7v3.1h-1.2v-3.2c0-3.3,1.3-6.3,3.7-8.6c2.3-2.3,5.4-3.5,8.6-3.5     c3.3,0,6.3,1.3,8.6,3.7s3.5,5.4,3.5,8.6l0,2.9H35.9z" style="fill:#0D5FC3;"/>

</g>

</g>

<g>

<g>

<rect height="1.2" style="fill:#0D5FC3;" width="4.1" x="17" y="38.1"/>

</g>

</g>

<g>

<g>

<rect height="10.3" style="fill:#0D5FC3;" width="1.2" x="24.3" y="32"/>

</g>

</g>

</g>

</svg>