<?xml version="1.0" encoding="iso-8859-1"?>
<!-- Generator: Adobe Illustrator 19.0.0, SVG Export Plug-In . SVG Version: 6.00 Build 0)  -->
<!-- License: CC0. Made by SVG Repo: https://www.svgrepo.com/svg/184401/office-material-print -->
<svg version="1.1" id="Layer_1" xmlns="http://www.w3.org/2000/svg" xmlns:xlink="http://www.w3.org/1999/xlink" x="0px" y="0px"
	 viewBox="0 0 512 512" style="enable-background:new 0 0 512 512;" xml:space="preserve">
<path style="fill:#3B8BC0;" d="M482.008,327.059h-61.019v99.938h61.019c16.565,0,29.992-13.428,29.992-29.992v-39.953
	C512,340.486,498.572,327.059,482.008,327.059z"/>
<rect x="22.882" y="146.575" style="fill:#C2E7FF;" width="411.626" height="138.422"/>
<rect x="73.935" y="18.682" style="fill:#FFCE47;" width="309.517" height="266.313"/>
<g>
	<path style="fill:#FFFFFF;" d="M122.666,195.231c-6.7,0-12.133,5.432-12.133,12.133v77.635h24.265v-77.635
		C134.799,200.663,129.366,195.231,122.666,195.231z"/>
	<path style="fill:#FFFFFF;" d="M304.727,187.733H200.954c-23.229,0-42.126,18.897-42.126,42.125v55.139h24.265v-55.139
		c0-9.848,8.012-17.859,17.861-17.859h103.773c9.848,0,17.861,8.012,17.861,17.859v55.139h24.265v-55.139
		C346.853,206.63,327.957,187.733,304.727,187.733z"/>
</g>
<polygon style="fill:#4EB9FF;" points="457.391,327.064 457.391,493.318 0,493.318 0,327.064 228.695,290.666 "/>
<g>
	<rect y="260.732" style="fill:#174461;" width="457.391" height="66.329"/>
	<path style="fill:#174461;" d="M325.597,91.328H131.789c-6.7,0-12.133-5.432-12.133-12.133s5.433-12.133,12.133-12.133h193.808
		c6.7,0,12.133,5.432,12.133,12.133C337.73,85.896,332.298,91.328,325.597,91.328z"/>
	<path style="fill:#174461;" d="M325.597,151.84H131.789c-6.7,0-12.133-5.432-12.133-12.133c0-6.701,5.433-12.133,12.133-12.133
		h193.808c6.7,0,12.133,5.432,12.133,12.133C337.73,146.408,332.298,151.84,325.597,151.84z"/>
	<path style="fill:#174461;" d="M311.793,439.13c-6.7,0-12.133-5.432-12.133-12.133v-21.441c0-6.701,5.433-12.133,12.133-12.133
		c6.7,0,12.133,5.432,12.133,12.133v21.441C323.926,433.698,318.494,439.13,311.793,439.13z"/>
	<path style="fill:#174461;" d="M360.324,439.13c-6.7,0-12.133-5.432-12.133-12.133v-21.441c0-6.701,5.433-12.133,12.133-12.133
		s12.133,5.432,12.133,12.133v21.441C372.457,433.698,367.025,439.13,360.324,439.13z"/>
	<path style="fill:#174461;" d="M408.855,439.13c-6.7,0-12.133-5.432-12.133-12.133v-21.441c0-6.701,5.433-12.133,12.133-12.133
		c6.7,0,12.133,5.432,12.133,12.133v21.441C420.988,433.698,415.556,439.13,408.855,439.13z"/>
</g>
</svg>
