<?xml version="1.0" encoding="iso-8859-1"?>
<!-- Generator: Adobe Illustrator 19.0.0, SVG Export Plug-In . SVG Version: 6.00 Build 0)  -->
<!-- License: CC0. Made by SVG Repo: https://www.svgrepo.com/svg/202727/office-material-attach -->
<svg version="1.1" id="Layer_1" xmlns="http://www.w3.org/2000/svg" xmlns:xlink="http://www.w3.org/1999/xlink" x="0px" y="0px"
	 viewBox="0 0 512 512" style="enable-background:new 0 0 512 512;" xml:space="preserve">
<polygon style="fill:#C21B23;" points="474.64,115.652 396.398,37.409 240.975,176.432 247.293,264.757 335.618,271.076 "/>
<polygon style="fill:#CCC4C1;" points="189.557,296.2 17.281,468.477 10.908,500.706 43.522,494.719 215.8,322.443 "/>
<path style="fill:#EE3840;" d="M337.982,269.245l-94.643-94.643c-58.378-22.204-126.909-9.799-173.934,37.227l231.351,231.351
	C347.78,396.154,360.186,327.622,337.982,269.245z"/>
<path style="fill:#11113F;" d="M508.604,130.843l-24.531-24.531c-0.043-0.043-0.086-0.086-0.129-0.129l-78.127-78.127
	c-0.043-0.044-0.086-0.087-0.13-0.13l-24.53-24.53c-4.528-4.528-11.872-4.528-16.401,0c-4.53,4.529-4.53,11.872,0,16.402
	l15.931,15.931L239.54,161.982c-62.735-20.98-132.504-4.771-179.541,42.266c-2.175,2.175-3.397,5.125-3.397,8.201
	s1.222,6.026,3.397,8.201l94.353,94.353L14.879,454.477c-1.346,1.346-2.34,3.003-2.895,4.825L0.503,497.025
	c-1.247,4.097-0.135,8.548,2.895,11.578C5.606,510.81,8.568,512,11.599,512c1.127,0,2.265-0.165,3.376-0.502l37.723-11.481
	c1.821-0.554,3.478-1.548,4.825-2.895l139.475-139.475L291.351,452c2.174,2.174,5.125,3.397,8.201,3.397s6.026-1.222,8.201-3.397
	c47.037-47.037,63.248-116.804,42.266-179.541L476.27,131.311l15.931,15.931c4.529,4.53,11.872,4.53,16.402,0
	C513.132,142.714,513.132,135.371,508.604,130.843z M43.171,478.67l-14.145,4.305l4.305-14.145l137.424-137.424l9.84,9.84
	L43.171,478.67z M336.308,252.995l-32.865-32.865c-4.529-4.529-11.872-4.529-16.402,0c-4.529,4.529-4.529,11.872,0,16.402
	l39.746,39.746c18.717,51.686,7.934,109.435-27.55,150.809l-93.973-93.973c-0.022-0.023-0.044-0.045-0.066-0.067
	c-0.023-0.022-0.045-0.044-0.067-0.066l-26.108-26.108c-0.022-0.023-0.044-0.045-0.066-0.067c-0.023-0.022-0.045-0.044-0.067-0.066
	l-93.973-93.973c41.373-35.485,99.121-46.268,150.809-27.55l23.343,23.343c4.529,4.529,11.872,4.529,16.402,0s4.529-11.872,0-16.402
	l-16.464-16.464L397.115,52.157l62.728,62.728L336.308,252.995z"/>
</svg>
