<?xml version="1.0" encoding="utf-8"?>
<!-- License: PD. Made by Mary Akveo: https://maryakveo.com/ -->
<svg fill="#000000" width="800px" height="800px" viewBox="0 0 24 24" id="note-remove" data-name="Flat Line" xmlns="http://www.w3.org/2000/svg" class="icon flat-line"><path id="secondary" d="M18,4H15V5a1,1,0,0,1-1,1H10A1,1,0,0,1,9,5V4H6A1,1,0,0,0,5,5V20a1,1,0,0,0,1,1H18a1,1,0,0,0,1-1V5A1,1,0,0,0,18,4Z" style="fill: rgb(44, 169, 188); stroke-width: 2;"></path><rect id="primary" x="9" y="3" width="6" height="3" rx="1" style="fill: none; stroke: rgb(0, 0, 0); stroke-linecap: round; stroke-linejoin: round; stroke-width: 2;"></rect><line id="primary-2" data-name="primary" x1="10" y1="15" x2="14" y2="11" style="fill: none; stroke: rgb(0, 0, 0); stroke-linecap: round; stroke-linejoin: round; stroke-width: 2;"></line><line id="primary-3" data-name="primary" x1="10" y1="11" x2="14" y2="15" style="fill: none; stroke: rgb(0, 0, 0); stroke-linecap: round; stroke-linejoin: round; stroke-width: 2;"></line><path id="primary-4" data-name="primary" d="M18,4a1,1,0,0,1,1,1V20a1,1,0,0,1-1,1H6a1,1,0,0,1-1-1V5A1,1,0,0,1,6,4" style="fill: none; stroke: rgb(0, 0, 0); stroke-linecap: round; stroke-linejoin: round; stroke-width: 2;"></path></svg>