<?xml version="1.0" standalone="no"?>
<!DOCTYPE svg PUBLIC "-//W3C//DTD SVG 20010904//EN"
 "http://www.w3.org/TR/2001/REC-SVG-20010904/DTD/svg10.dtd">
<svg version="1.0" xmlns="http://www.w3.org/2000/svg"
 width="243.000000pt" height="129.000000pt" viewBox="0 0 243.000000 129.000000"
 preserveAspectRatio="xMidYMid meet">

<g transform="translate(0.000000,129.000000) scale(0.100000,-0.100000)"
fill="#000000" stroke="none">
<path d="M168 1113 c-16 -4 -18 -39 -20 -476 -3 -466 -3 -472 17 -473 20 -2
20 4 17 322 -1 202 -6 324 -12 324 -13 0 -13 37 0 45 5 3 10 -1 10 -9 0 -9 5
-16 10 -16 6 0 10 7 10 15 0 9 5 21 10 28 6 7 18 22 28 35 l17 23 22 -20 c13
-13 24 -17 28 -11 4 6 11 8 16 4 6 -3 2 -12 -10 -21 l-21 -14 26 -35 c14 -18
30 -31 35 -28 15 9 10 27 -6 20 -9 -3 -15 0 -15 9 0 8 -4 15 -8 15 -5 0 -9 6
-9 13 0 8 11 11 34 9 24 -3 33 -9 33 -22 0 -22 24 -32 39 -17 16 16 14 30 -3
24 -10 -4 -13 -1 -9 9 4 10 0 12 -12 7 -15 -5 -17 -2 -13 15 6 22 -6 30 -17
12 -3 -5 -11 -10 -16 -10 -6 0 -7 5 -3 12 4 6 3 8 -3 5 -14 -9 -37 19 -28 33
3 5 13 10 21 10 8 0 13 4 10 9 -7 11 -41 7 -41 -5 0 -5 -4 -15 -9 -22 -6 -11
-13 -9 -31 8 -13 12 -21 28 -18 36 8 21 -11 17 -25 -6 -11 -18 -10 -20 8 -20
11 0 20 -4 20 -10 0 -5 -7 -10 -15 -10 -8 0 -15 -9 -15 -20 0 -11 -7 -20 -15
-20 -8 0 -15 -4 -15 -10 0 -5 -4 -10 -9 -10 -6 0 -11 17 -13 38 -2 29 3 43 25
66 15 16 27 33 27 38 0 6 9 22 19 37 15 21 17 30 8 41 -17 21 -41 25 -34 5 4
-8 1 -15 -6 -15 -8 0 -7 -3 2 -9 12 -8 12 -12 2 -25 -7 -9 -11 -22 -8 -30 8
-19 -15 -27 -30 -10 -10 10 -10 13 0 17 9 3 9 10 -2 30 -12 22 -12 28 3 42 14
14 22 28 14 24 -2 -1 -11 -3 -20 -6z"/>
<path d="M811 1023 c1 -54 4 -88 6 -75 9 44 23 21 23 -38 0 -33 4 -60 10 -60
6 0 10 18 10 40 0 22 4 40 9 40 5 0 12 9 16 20 5 15 14 19 43 17 30 -2 37 1
36 15 -1 10 2 16 6 13 4 -3 10 6 12 20 4 19 2 23 -7 15 -9 -8 -12 -4 -12 15 0
16 5 25 16 26 10 0 11 2 4 6 -7 2 -13 13 -13 24 0 17 -8 19 -80 19 l-80 0 1
-97z"/>
<path d="M1621 1104 c0 -11 3 -14 6 -6 3 7 2 16 -1 19 -3 4 -6 -2 -5 -13z"/>
<path d="M2187 1097 c-9 -11 -14 -29 -11 -39 3 -10 1 -18 -4 -18 -17 0 -20
-38 -8 -75 7 -19 15 -32 19 -29 3 3 3 13 0 22 -5 11 -2 14 10 9 16 -6 16 -4 1
24 -12 25 -13 33 -3 45 10 13 10 17 -2 25 -13 8 -12 10 10 13 17 2 23 14 14
30 -7 13 -11 12 -26 -7z"/>
<path d="M2237 1106 c-4 -10 -3 -15 3 -11 6 3 10 1 10 -6 0 -7 3 -10 6 -6 3 3
2 13 -4 22 -8 16 -9 16 -15 1z"/>
<path d="M2276 1104 c-4 -9 -4 -19 -1 -22 2 -3 7 3 11 12 4 9 4 19 1 22 -2 3
-7 -3 -11 -12z"/>
<path d="M1517 1090 c-3 -13 0 -20 9 -20 8 0 14 9 14 20 0 11 -4 20 -9 20 -5
0 -11 -9 -14 -20z"/>
<path d="M1641 1074 c0 -11 3 -14 6 -6 3 7 2 16 -1 19 -3 4 -6 -2 -5 -13z"/>
<path d="M1617 1057 c-3 -9 -2 -19 4 -23 15 -9 18 -2 9 20 -6 17 -7 18 -13 3z"/>
<path d="M280 1041 c0 -6 4 -13 10 -16 6 -3 7 1 4 9 -7 18 -14 21 -14 7z"/>
<path d="M1573 1028 c-2 -22 13 -24 21 -2 8 21 8 21 -7 21 -7 0 -14 -9 -14
-19z"/>
<path d="M1506 999 c-3 -17 -10 -28 -16 -24 -6 4 -10 3 -9 -2 3 -19 -2 -34
-10 -29 -5 3 -11 -3 -14 -14 -8 -32 10 -32 23 0 7 16 15 29 19 28 20 -2 30 4
25 17 -4 8 -1 15 5 15 16 0 14 27 -3 33 -9 4 -16 -4 -20 -24z"/>
<path d="M1654 1000 c-1 -17 3 -27 9 -23 10 6 7 -14 -7 -48 -5 -10 4 -28 24
-49 28 -30 29 -34 15 -50 -8 -9 -12 -20 -8 -23 3 -4 -1 -7 -10 -7 -9 0 -18 -4
-21 -9 -4 -5 3 -7 14 -4 11 3 20 0 20 -6 0 -6 -7 -11 -15 -11 -8 0 -15 -4 -15
-8 0 -4 9 -8 20 -8 14 0 20 7 21 26 l1 25 11 -26 c7 -18 17 -26 33 -26 13 0
24 3 24 8 0 5 -9 9 -19 9 -18 0 -37 27 -26 38 2 3 7 -3 11 -12 9 -23 23 -20
17 5 -4 16 -11 19 -29 15 -18 -5 -22 -3 -18 9 3 8 10 13 14 10 5 -3 8 3 7 14
0 11 -4 18 -8 15 -8 -5 -22 14 -25 34 -1 6 2 12 7 12 5 0 9 5 9 10 0 6 -5 9
-11 8 -6 -2 -14 3 -17 11 -2 8 0 11 6 7 6 -4 8 2 5 14 -3 11 -9 20 -14 20 -5
0 -9 11 -9 25 0 35 -15 31 -16 -5z"/>
<path d="M2225 1012 c-6 -16 2 -32 16 -32 6 0 7 5 4 10 -4 6 -2 17 4 24 8 9 7
13 -4 13 -8 0 -17 -7 -20 -15z"/>
<path d="M1606 1005 c-9 -26 -7 -32 5 -12 6 10 9 21 6 23 -2 3 -7 -2 -11 -11z"/>
<path d="M277 993 c5 -12 3 -14 -8 -8 -8 5 -11 4 -6 0 14 -16 35 -13 40 4 3
11 -2 17 -14 18 -12 1 -16 -3 -12 -14z"/>
<path d="M1623 980 c-9 -16 -20 -30 -24 -30 -4 0 -5 -9 -2 -20 8 -31 23 -23
23 13 0 25 3 29 11 17 9 -13 10 -13 6 0 -2 8 0 23 5 33 15 29 0 19 -19 -13z"/>
<path d="M968 968 c-33 -34 -33 -35 -13 -35 8 0 13 2 10 5 -2 2 3 11 11 19 19
19 31 9 15 -11 -7 -8 -10 -20 -6 -27 6 -8 10 -7 16 2 8 12 11 11 19 -1 9 -13
10 -13 10 1 0 8 -6 24 -14 34 -8 11 -12 25 -9 32 8 21 -10 13 -39 -19z"/>
<path d="M2136 965 c-9 -25 -7 -32 4 -15 8 11 9 4 6 -26 -3 -25 1 -52 10 -68
12 -24 12 -30 -1 -43 -8 -8 -15 -25 -15 -39 0 -13 -4 -24 -10 -24 -12 0 -14
56 -2 63 4 2 1 2 -5 1 -7 -2 -13 2 -13 8 0 6 -3 8 -7 4 -11 -11 -3 -78 12 -99
7 -10 11 -28 8 -40 -4 -17 -2 -19 5 -8 8 11 11 10 15 -5 3 -11 4 -8 3 8 -1 15
-5 30 -8 34 -8 8 1 34 12 34 5 0 10 -8 12 -17 3 -15 5 -14 10 4 4 14 2 22 -6
20 -6 -1 -10 8 -8 23 5 35 22 50 23 19 l0 -24 10 24 c8 19 6 27 -6 34 -12 6
-15 17 -11 35 5 20 4 23 -4 12 -11 -17 -12 -11 -11 40 2 42 -13 71 -23 45z"/>
<path d="M180 930 c0 -11 5 -20 10 -20 6 0 10 9 10 20 0 11 -4 20 -10 20 -5 0
-10 -9 -10 -20z"/>
<path d="M890 942 c0 -5 7 -9 15 -9 8 0 12 4 9 9 -3 4 -9 8 -15 8 -5 0 -9 -4
-9 -8z"/>
<path d="M1527 934 c4 -12 3 -15 -5 -10 -7 4 -12 2 -12 -3 0 -6 7 -11 16 -11
9 0 12 -5 8 -12 -4 -7 -3 -8 5 -4 6 4 9 11 6 16 -3 4 1 10 7 12 8 3 5 9 -9 17
-20 10 -22 9 -16 -5z"/>
<path d="M2197 931 c-2 -10 -1 -25 4 -32 12 -21 33 4 24 30 -8 26 -21 27 -28
2z"/>
<path d="M881 913 c-1 -17 16 -25 25 -12 4 7 3 9 -4 5 -5 -3 -13 0 -15 6 -4 9
-6 10 -6 1z"/>
<path d="M945 905 c4 -11 7 -30 6 -42 -1 -27 15 -30 28 -5 7 13 3 23 -17 42
-22 22 -25 22 -17 5z"/>
<path d="M1511 884 c0 -11 3 -14 6 -6 3 7 2 16 -1 19 -3 4 -6 -2 -5 -13z"/>
<path d="M1000 870 c0 -11 -5 -20 -11 -20 -7 0 -9 -10 -7 -25 3 -13 0 -26 -6
-28 -7 -3 -6 -9 3 -18 8 -8 11 -9 8 -3 -4 7 2 14 13 17 11 3 20 12 20 21 0 9
5 16 10 16 6 0 10 14 10 30 0 23 -4 30 -20 30 -13 0 -20 -7 -20 -20z"/>
<path d="M893 866 c-19 -22 -20 -70 -2 -74 12 -2 16 8 18 43 2 49 1 50 -16 31z"/>
<path d="M1655 869 c-4 -6 -13 -8 -21 -5 -8 3 -14 2 -14 -3 0 -5 9 -11 21 -14
12 -3 18 -3 15 0 -3 4 -1 12 5 20 6 7 9 13 6 13 -3 0 -9 -5 -12 -11z"/>
<path d="M1475 860 c3 -5 1 -10 -4 -10 -6 0 -11 -4 -11 -10 0 -5 9 -10 19 -10
11 0 21 -5 23 -12 3 -9 6 -9 12 0 4 7 2 12 -3 12 -6 0 -11 9 -11 20 0 11 -7
20 -16 20 -8 0 -12 -4 -9 -10z"/>
<path d="M2126 851 c-3 -5 1 -11 9 -15 8 -3 15 -1 15 4 0 13 -18 22 -24 11z"/>
<path d="M416 814 c-20 -19 -20 -31 -2 -31 17 0 39 34 27 42 -5 3 -17 -2 -25
-11z"/>
<path d="M1422 821 c-10 -6 -10 -10 3 -21 13 -11 15 -9 15 9 0 24 0 24 -18 12z"/>
<path d="M1032 797 c-8 -10 -6 -13 8 -13 11 0 22 6 24 13 3 7 -1 13 -8 13 -7
0 -18 -6 -24 -13z"/>
<path d="M1464 794 c3 -9 6 -18 6 -20 0 -2 6 -4 14 -4 26 0 25 15 -1 27 -21
10 -24 10 -19 -3z"/>
<path d="M447 785 c-9 -8 -20 -15 -26 -15 -5 0 -12 -4 -16 -9 -3 -6 4 -9 15
-8 11 1 20 5 20 10 0 4 4 6 9 3 5 -3 12 1 15 10 9 24 1 28 -17 9z"/>
<path d="M350 781 c0 -6 4 -13 10 -16 6 -3 7 1 4 9 -7 18 -14 21 -14 7z"/>
<path d="M1416 765 c-3 -9 0 -15 8 -15 7 0 13 7 13 15 0 8 -4 15 -8 15 -4 0
-9 -7 -13 -15z"/>
<path d="M475 760 c3 -5 8 -10 11 -10 2 0 4 5 4 10 0 6 -5 10 -11 10 -5 0 -7
-4 -4 -10z"/>
<path d="M860 760 c0 -5 5 -10 10 -10 6 0 10 5 10 10 0 6 -4 10 -10 10 -5 0
-10 -4 -10 -10z"/>
<path d="M1005 760 c-8 -13 15 -13 35 0 12 8 11 10 -7 10 -12 0 -25 -4 -28
-10z"/>
<path d="M1060 760 c0 -5 7 -10 16 -10 8 0 12 5 9 10 -3 6 -10 10 -16 10 -5 0
-9 -4 -9 -10z"/>
<path d="M2064 705 c3 -8 1 -15 -5 -15 -6 0 -7 -5 -3 -12 5 -7 12 -5 22 8 13
18 14 17 9 -9 -2 -15 0 -30 4 -33 5 -3 9 -10 9 -15 0 -6 -4 -7 -10 -4 -5 3
-10 1 -10 -4 0 -6 9 -11 19 -11 11 0 21 -3 24 -7 2 -5 2 -1 -1 7 -3 8 -5 23
-6 33 0 9 -4 17 -8 17 -4 0 -8 8 -8 18 0 19 -18 42 -33 42 -5 0 -7 -7 -3 -15z"/>
<path d="M2036 645 c-4 -15 -5 -30 -1 -33 3 -3 5 0 5 6 0 16 17 15 23 0 2 -7
2 -2 0 12 -7 38 -20 45 -27 15z"/>
<path d="M2086 575 c4 -23 3 -26 -5 -15 -6 8 -11 11 -11 5 0 -5 -5 -3 -10 5
-8 13 -10 12 -11 -5 -1 -11 -3 -25 -3 -32 -2 -23 -16 -26 -30 -7 -13 17 -14
16 -10 -17 4 -25 0 -40 -10 -49 -20 -16 -21 -34 -1 -26 8 3 15 1 15 -4 0 -6
-4 -10 -10 -10 -5 0 -6 -8 -3 -17 4 -11 8 -13 11 -5 2 7 8 10 12 7 5 -3 5 7 1
22 -10 35 -5 50 26 81 19 19 27 21 39 11 12 -10 13 -9 8 6 -6 13 -4 16 5 10
10 -6 11 -2 6 16 -13 41 -26 57 -19 24z"/>
<path d="M2065 474 c-11 -13 -20 -35 -20 -49 0 -14 -4 -29 -10 -33 -31 -22
-42 -91 -17 -100 14 -4 13 28 0 39 -5 3 6 24 23 47 19 26 29 49 25 58 -4 10 1
22 10 29 9 6 15 16 13 22 -2 6 -13 0 -24 -13z"/>
<path d="M604 465 c7 -49 30 -73 33 -35 1 13 -3 18 -10 14 -7 -3 -4 1 6 9 21
17 22 24 2 24 -8 0 -12 -4 -9 -9 3 -4 1 -8 -5 -8 -5 0 -12 6 -15 13 -2 6 -3 3
-2 -8z"/>
<path d="M663 474 c3 -3 1 -18 -4 -32 -6 -16 -6 -29 0 -35 7 -7 7 -16 0 -29
-5 -10 -7 -23 -4 -28 8 -13 32 -2 40 18 5 14 4 15 -6 5 -21 -21 -28 -15 -16
11 9 18 16 22 28 15 13 -6 16 -4 14 14 -3 32 -4 33 -13 20 -6 -9 -11 -7 -20 7
-7 12 -8 20 -2 20 5 0 10 5 10 10 0 6 -7 10 -17 10 -9 0 -14 -3 -10 -6z m17
-48 c0 -3 -4 -8 -10 -11 -5 -3 -10 -1 -10 4 0 6 5 11 10 11 6 0 10 -2 10 -4z"/>
<path d="M812 416 c-1 -48 -7 -75 -19 -88 -9 -11 -11 -18 -5 -18 7 0 12 -12
12 -27 -1 -27 -1 -27 -16 -8 -12 17 -16 18 -24 5 -5 -8 -13 -11 -17 -6 -4 5
-2 11 5 13 19 7 15 43 -5 43 -15 0 -14 3 5 18 22 17 22 19 7 32 -14 12 -18 12
-26 -1 -5 -8 -7 -20 -4 -28 4 -9 0 -11 -10 -7 -22 8 -18 -7 5 -22 22 -13 27
-33 8 -28 -7 1 -10 1 -5 -1 4 -3 5 -9 1 -14 -3 -5 0 -9 5 -9 6 0 11 -6 11 -14
0 -8 10 -13 28 -12 26 1 27 -1 26 -43 l0 -43 33 5 c18 3 33 2 33 -4 0 -5 5 -9
10 -9 6 0 10 7 10 15 0 8 -4 15 -10 15 -6 0 -10 57 -10 150 0 93 -4 150 -10
150 -6 0 -10 -58 -10 -155 0 -208 -19 -206 -23 3 -1 86 -4 126 -5 88z m-56
-48 c4 -7 3 -8 -4 -4 -7 4 -12 2 -12 -5 0 -7 -3 -10 -6 -6 -6 5 3 27 11 27 2
0 7 -5 11 -12z"/>
<path d="M904 315 c0 -93 2 -133 3 -88 2 45 2 122 0 170 -1 48 -3 12 -3 -82z"/>
<path d="M1112 455 c-13 -14 -22 -32 -19 -42 4 -17 5 -17 6 0 0 9 5 17 9 17 5
0 14 11 20 25 14 31 13 31 -16 0z"/>
<path d="M1288 458 c-10 -11 -15 -25 -12 -30 7 -11 44 25 44 42 0 16 -14 11
-32 -12z"/>
<path d="M1770 470 c0 -5 5 -10 11 -10 6 0 9 -6 7 -12 -3 -7 4 -21 15 -31 19
-19 19 -18 12 3 -5 17 -4 20 5 15 9 -5 11 -4 6 4 -4 6 -12 9 -17 6 -13 -9 -11
9 3 23 8 8 9 12 1 12 -6 0 -14 -6 -16 -12 -4 -10 -6 -10 -6 0 -1 14 -21 17
-21 2z"/>
<path d="M1830 468 c0 -6 7 -20 17 -30 11 -12 16 -33 15 -63 -2 -34 1 -45 13
-45 16 0 30 -41 22 -69 -3 -14 0 -17 13 -14 10 3 21 0 24 -6 8 -12 27 -15 25
-3 -4 22 3 32 21 32 11 0 20 5 20 10 0 6 -16 10 -36 10 -25 0 -43 7 -55 22
-20 22 -26 43 -10 33 6 -3 9 3 8 14 -1 23 -27 16 -28 -8 0 -10 -2 -12 -6 -3
-3 7 -1 18 5 25 11 14 -4 77 -18 77 -6 0 -10 7 -10 15 0 8 -4 15 -10 15 -5 0
-10 -5 -10 -12z"/>
<path d="M1080 459 c0 -5 5 -7 10 -4 6 3 10 8 10 11 0 2 -4 4 -10 4 -5 0 -10
-5 -10 -11z"/>
<path d="M1148 464 c-4 -6 4 -22 17 -34 l25 -23 0 26 c0 14 -5 29 -12 33 -8 5
-9 2 -5 -9 3 -10 2 -17 -3 -17 -5 0 -10 8 -12 18 -2 11 -6 13 -10 6z"/>
<path d="M1370 460 c0 -5 5 -10 10 -10 6 0 10 5 10 10 0 6 -4 10 -10 10 -5 0
-10 -4 -10 -10z"/>
<path d="M1342 428 c4 -29 24 -34 31 -8 3 11 1 18 -4 14 -5 -3 -9 0 -9 5 0 6
-5 11 -11 11 -6 0 -9 -10 -7 -22z"/>
<path d="M1319 401 c8 -5 10 -14 6 -21 -6 -9 -4 -11 5 -5 9 6 10 2 5 -15 -5
-15 -4 -20 4 -16 17 11 13 53 -5 60 -23 9 -31 7 -15 -3z"/>
<path d="M1138 354 c-2 -19 -3 -34 -3 -34 1 0 12 8 23 19 27 23 28 46 3 48
-15 1 -20 -6 -23 -33z"/>
<path d="M1201 374 c0 -11 3 -14 6 -6 3 7 2 16 -1 19 -3 4 -6 -2 -5 -13z"/>
<path d="M1249 375 c-3 -12 3 -26 15 -36 23 -19 31 -69 10 -69 -8 0 -14 10
-14 23 0 12 -11 29 -23 38 -21 16 -22 15 -23 -12 -1 -17 4 -29 11 -29 16 0 26
-25 19 -45 -7 -17 -24 -20 -24 -4 0 8 -4 8 -14 0 -11 -9 -15 -7 -20 11 -3 13
-13 32 -21 43 -13 17 -17 18 -25 5 -5 -8 -4 -22 2 -33 7 -14 12 -16 18 -8 4 8
11 2 20 -18 7 -17 19 -31 26 -31 17 0 19 -37 2 -42 -7 -3 1 -5 19 -5 18 0 30
4 28 8 -3 3 3 6 13 5 11 -1 18 7 20 25 2 20 -2 28 -20 33 -22 7 -22 7 -3 15
11 5 25 4 32 -1 9 -7 11 -1 10 26 -2 19 -6 38 -9 42 -4 4 -3 15 2 24 7 13 6
20 -5 24 -8 3 -15 1 -15 -4 0 -20 -19 -9 -22 13 -4 20 -4 21 -9 2z m11 -155
c0 -5 -4 -10 -10 -10 -5 0 -10 5 -10 10 0 6 5 10 10 10 6 0 10 -4 10 -10z"/>
<path d="M1830 379 c0 -5 -4 -8 -8 -5 -4 2 -8 -3 -9 -13 -1 -10 6 -17 17 -17
12 0 17 7 16 23 -1 22 -16 34 -16 12z"/>
<path d="M1957 374 c3 -9 0 -20 -8 -25 -11 -7 -11 -9 3 -9 11 0 15 -5 12 -15
-4 -8 -1 -15 5 -15 6 0 9 13 7 33 -3 17 -5 35 -5 40 -1 4 -5 7 -11 7 -5 0 -7
-7 -3 -16z"/>
<path d="M2037 363 c-4 -3 -7 -11 -7 -17 0 -6 5 -5 12 2 6 6 9 14 7 17 -3 3
-9 2 -12 -2z"/>
<path d="M1186 313 c-6 -14 -5 -15 5 -6 7 7 10 15 7 18 -3 3 -9 -2 -12 -12z"/>
<path d="M1858 276 c-3 -24 0 -32 9 -29 14 6 18 63 4 63 -5 0 -11 -15 -13 -34z"/>
<path d="M766 217 c3 -10 9 -15 12 -12 3 3 0 11 -7 18 -10 9 -11 8 -5 -6z"/>
<path d="M1156 217 c3 -10 9 -15 12 -12 3 3 0 11 -7 18 -10 9 -11 8 -5 -6z"/>
<path d="M1890 212 c0 -12 19 -26 26 -19 2 2 -2 10 -11 17 -9 8 -15 8 -15 2z"/>
<path d="M1973 208 c7 -21 -4 -23 -22 -5 -10 10 -10 7 -4 -11 11 -29 23 -32
37 -10 8 13 7 21 -3 30 -12 11 -13 10 -8 -4z"/>
</g>
</svg>
