<?xml version="1.0" encoding="utf-8"?>
<!-- Generator: Adobe Illustrator 24.1.1, SVG Export Plug-In . SVG Version: 6.00 Build 0)  -->
<svg version="1.1" id="Layer_1" xmlns="http://www.w3.org/2000/svg" xmlns:xlink="http://www.w3.org/1999/xlink" x="0px" y="0px"
	 viewBox="0 0 1024 1024" style="enable-background:new 0 0 1024 1024;" xml:space="preserve">
<style type="text/css">
	.st0{fill:url(#SVGID_1_);}
	.st1{fill:url(#SVGID_2_);}
</style>
<linearGradient id="SVGID_1_" gradientUnits="userSpaceOnUse" x1="162" y1="512" x2="862" y2="512">
	<stop  offset="0" style="stop-color:#FE7356"/>
	<stop  offset="1" style="stop-color:#F64B3B"/>
</linearGradient>
<path class="st0" d="M519.95,157.2c0,25.03,0,49.15,0,74.33c-75.86,1.74-141.45,27.64-196.06,79.93
	c-54.39,52.08-81.74,116.88-88.8,192.07c-24.48,1.02-48.09,0.76-71.7-0.65c-1.78-3.8-1.39-6.5-1.27-9.21
	c2.12-48.1,15.93-93.16,37.07-135.92c18.87-38.16,44.11-71.68,75.17-101.26c41.96-39.95,90.75-67.38,145.56-84.59
	c14.23-4.47,29.51-5.59,43.77-9.98C481.91,156.34,500.3,157.5,519.95,157.2z M688.98,529c-2.03,54.57-29.46,96.12-73.1,126.89
	c-44.64,31.47-94.6,36.23-147.82,20.97c0,27.68,0,53.72,0,79.5c138.41,35.15,291.89-68.48,298.47-226.84
	C761.05,526.12,698.62,525.58,688.98,529z M681.35,238.67c13.56,9.4,27.93,17.85,40.47,28.47c40.03,33.88,73.73,72.76,93.82,122.22
	c6.89,16.96,14.49,33.76,18.55,51.5c8.3,36.29,12.77,72.7,9.03,110.53c-4.74,47.98-20.82,91.73-42.62,133.59
	c-16.05,30.83-39.69,56.65-65.24,79.89c-32.71,29.75-70.48,52.28-112.66,65.97c-88.85,28.84-175.38,22.39-258.29-21.13
	c-37.76-19.82-70.83-45.98-97.56-79.72c-19.62-24.77-37.84-50.15-49.34-80.05c-13.99-36.36-24.76-73.25-25.43-112.54
	c-0.06-3.51-0.07-7.33-3.82-10.14c-4.56-1.23-9.49-1.53-14.33,0.37c-0.55,0.99-1.23,1.72-1.37,2.54c-0.26,1.46-0.3,2.97-0.24,4.46
	c1.46,37.38,8.88,73.42,22.12,108.52c19.69,52.16,50.01,97.19,91.11,134.28c44.85,40.47,96.93,68.35,156.56,80.88
	c103.07,21.66,197.72,1.94,282.26-60.62c34.49-25.52,63.94-56.43,86.26-94.25c20.84-35.3,38.9-71.6,45.4-111.87
	c8.05-49.89,8.56-100.17-2.22-150.23c-9.55-44.32-29.67-83.96-55.09-120.35c-26.23-37.55-59.18-69.34-99.52-92.44
	c-2.62-1.5-6.55-2.43-5.32-7.01c28.9-5.78,28.9-5.78,29.3-15.46c-21.87,0-43.71,0-65.85,0c0,21.11,0,41.99,0,63.51
	c19.41-5.15,12.83-21.39,15.57-32.82C677.3,236.01,679.38,237.31,681.35,238.67z M686.15,334.35c-46.33-41.58-101-62.55-164.24-62.6
	c0,26.59,0,51.77,0,77.78c44.62,1.8,83.4,15.8,115.2,46.76c31.33,30.5,50.84,66.67,51.68,111.37c26.89,0,51.36,0,78.18,0
	C762.96,438.08,737.14,380.11,686.15,334.35z M348.78,691.22c27.5,28.79,61.17,49.43,99.5,59.86c3.66-4.05,3.17-7.1,3.16-10.09
	c-0.05-18.3-1.23-36.71,0.3-54.88c1.09-12.92-4.63-19.28-14.62-24.63c-37.33-19.97-60.37-51.89-74.65-90.78
	c-4.81-13.11-7.78-26.79-8.22-42.02c-25.03-6.54-49.66-1.34-76.26-1.87C276.27,593.43,305.48,645.89,348.78,691.22z"/>
<linearGradient id="SVGID_2_" gradientUnits="userSpaceOnUse" x1="356.9852" y1="521.1573" x2="667.0148" y2="521.1573">
	<stop  offset="0" style="stop-color:#505C6C"/>
	<stop  offset="1" style="stop-color:#1F2123"/>
</linearGradient>
<path class="st1" d="M519.01,517.42c11.89,12.85,23.77,25.71,36.36,39.32c24.89-11.58,49.2-22.9,74.8-34.81c0,20.53,0,39.77,0,60.42
	c-36.81,18.3-74.2,36.89-113.14,56.25c0-41.34,0-80.63,0-119.92C517.7,518.26,518.35,517.84,519.01,517.42z M506.3,638.32
	c0-41.16,0-80.58,0-122.08c-14.37,13.59-24.39,28.3-38.4,40.15c-24.72-11.44-49.18-22.76-74.75-34.59c0,21.15,0,40.21,0,60.31
	C430.5,600.66,467.85,619.22,506.3,638.32z M631.4,452.87c-38.47,16.41-75.89,32.36-114.46,48.81c14.73,16,27.61,29.98,40.5,43.97
	c36.78-17.2,72.24-33.78,109.57-51.24C654.57,479.65,643.92,465.5,631.4,452.87z M466.66,545.73c13.39-14.68,26.2-28.73,40.27-44.16
	c-38.99-16.57-76.39-32.45-114.46-48.63c-12.64,12.96-23.39,26.73-35.48,41.58C394.21,511.9,430.15,528.68,466.66,545.73z
	 M660.97,434.64c-33.47-11.15-66.92-22.38-101.35-30.28c-10.93-2.51-17.26,2.25-19.76,14.63c1.16,2.47,3.52,3.03,5.83,3.73
	c23.73,7.3,47.45,14.71,71.03,22.43c18.18,5.95,32.14-3.28,47.99-6.67C663.83,435.59,662.4,435.11,660.97,434.64z M381.3,445.13
	c5.13,1.68,10.31,4.21,15.76,2.49c26.3-8.29,53.15-14.77,79.13-24.11c5.23-1.88,7.98-4.91,7.84-10.76
	c-5.15-8.41-12.53-9.99-21.64-7.2c-31.82,9.75-63.58,19.67-95.83,27.96c-2.52,0.65-5.39,1.02-7.1,4.34
	C366.38,441.49,374.04,442.75,381.3,445.13z"/>
</svg>
