<?xml version="1.0" encoding="iso-8859-1"?>
<!-- Generator: Adobe Illustrator 19.0.0, SVG Export Plug-In . SVG Version: 6.00 Build 0)  -->
<!-- License: CC0. Made by SVG Repo: https://www.svgrepo.com/svg/293046/ruler-graphic-tool -->
<svg version="1.1" id="Layer_1" xmlns="http://www.w3.org/2000/svg" xmlns:xlink="http://www.w3.org/1999/xlink" x="0px" y="0px"
	 viewBox="0 0 512 512" style="enable-background:new 0 0 512 512;" xml:space="preserve">
<polygon style="fill:#FFFFFF;" points="160.736,30.268 3.969,95.319 3.969,305.898 171.103,365.838 338.23,305.898 338.23,95.319 
	"/>
<g>
	<path style="fill:#666666;" d="M171.103,370.061L0,308.692V92.668l160.641-66.679l181.558,66.536v216.167L171.103,370.061z
		 M7.938,303.112l163.165,58.511l163.165-58.511V98.09L160.831,34.53L7.938,97.971V303.112z"/>
	<polygon style="fill:#666666;" points="171.103,163.03 2.627,102.606 5.311,95.129 171.103,154.6 336.888,95.129 339.571,102.606 	
		"/>
	<rect x="167.095" y="158.839" style="fill:#666666;" width="7.938" height="207.023"/>
</g>
<polygon style="fill:#E21B1B;" points="274.107,444.21 405.829,486.011 512,151.457 380.277,109.647 370.037,141.939 "/>
<g>
	
		<rect x="392.975" y="117.416" transform="matrix(0.3025 -0.9531 0.9531 0.3025 140.0386 478.4694)" style="fill:#FFFFFF;" width="7.938" height="52.269"/>
	
		<rect x="371.39" y="154.795" transform="matrix(0.3021 -0.9533 0.9533 0.3021 101.9474 474.9728)" style="fill:#FFFFFF;" width="7.938" height="26.132"/>
	
		<rect x="375.031" y="173.933" transform="matrix(0.3025 -0.9531 0.9531 0.3025 73.6542 500.7859)" style="fill:#FFFFFF;" width="7.938" height="52.269"/>
	
		<rect x="353.633" y="211.288" transform="matrix(0.3026 -0.9531 0.9531 0.3026 35.5544 497.2989)" style="fill:#FFFFFF;" width="7.938" height="26.131"/>
	
		<rect x="357.159" y="230.43" transform="matrix(0.3025 -0.9531 0.9531 0.3025 7.3382 523.1569)" style="fill:#FFFFFF;" width="7.938" height="52.269"/>
	
		<rect x="335.7" y="267.826" transform="matrix(0.3022 -0.9532 0.9532 0.3022 -30.744 519.7916)" style="fill:#FFFFFF;" width="7.938" height="26.139"/>
	
		<rect x="339.2" y="286.958" transform="matrix(0.3025 -0.9531 0.9531 0.3025 -59.0672 545.4667)" style="fill:#FFFFFF;" width="7.938" height="52.269"/>
	
		<rect x="317.713" y="324.354" transform="matrix(0.3025 -0.9532 0.9532 0.3025 -97.2397 541.9709)" style="fill:#FFFFFF;" width="7.938" height="26.141"/>
	
		<rect x="321.241" y="343.47" transform="matrix(0.3025 -0.9531 0.9531 0.3025 -125.4576 567.7654)" style="fill:#FFFFFF;" width="7.938" height="52.269"/>
	
		<rect x="303.354" y="400.02" transform="matrix(0.3025 -0.9531 0.9531 0.3025 -191.8344 590.1599)" style="fill:#FFFFFF;" width="7.938" height="52.269"/>
	
		<rect x="299.843" y="380.801" transform="matrix(0.3026 -0.9531 0.9531 0.3026 -163.5238 564.2485)" style="fill:#FFFFFF;" width="7.938" height="26.131"/>
</g>
</svg>
