<?xml version="1.0" encoding="iso-8859-1"?>
<!-- Generator: Adobe Illustrator 19.0.0, SVG Export Plug-In . SVG Version: 6.00 Build 0)  -->
<!-- License: CC0. Made by SVG Repo: https://www.svgrepo.com/svg/293344/check-mark -->
<svg version="1.1" id="Layer_1" xmlns="http://www.w3.org/2000/svg" xmlns:xlink="http://www.w3.org/1999/xlink" x="0px" y="0px"
	 viewBox="0 0 512 512" style="enable-background:new 0 0 512 512;" xml:space="preserve">
<polygon style="fill:#FFFFFF;" points="73.312,508 73.312,4 328.72,4 438.688,113.968 438.688,508 "/>
<path style="fill:#CCCCCC;" d="M327.056,8l107.632,107.632V504H77.312V8H327.056 M330.4,0H69.312v512h373.376V112.32L330.4,0z"/>
<polygon style="fill:#222020;" points="442.688,112.32 330.368,0 330.368,112.32 "/>
<path style="fill:#E21B1B;" d="M256,157.472c-72.088,0-130.528,58.44-130.528,130.528S183.912,418.528,256,418.528
	S386.528,360.088,386.528,288S328.088,157.472,256,157.472L256,157.472z"/>
<polygon style="fill:#FFFFFF;" points="301.392,227.76 236.064,308.336 208.6,281.232 190.496,301.176 238.184,348.24 
	321.504,245.48 "/>
</svg>
