<?xml version="1.0" encoding="iso-8859-1"?>
<!-- Generator: Adobe Illustrator 19.0.0, SVG Export Plug-In . SVG Version: 6.00 Build 0)  -->
<!-- License: CC0. Made by SVG Repo: https://www.svgrepo.com/svg/272023/measuring-ruler -->
<svg version="1.1" id="Layer_1" xmlns="http://www.w3.org/2000/svg" xmlns:xlink="http://www.w3.org/1999/xlink" x="0px" y="0px"
	 viewBox="0 0 512 512" style="enable-background:new 0 0 512 512;" xml:space="preserve">
<path style="fill:#FB9DA4;" d="M508.742,296.85C510.876,283.546,512,269.905,512,256C512,114.616,397.385,0,256,0S0,114.616,0,256
	c0.001,128.239,94.294,234.451,217.331,253.095L508.742,296.85z"/>
<path style="fill:#F97D85;" d="M508.742,296.85L334.12,122.228L82.292,374.056l135.039,135.039C229.941,511.006,242.855,512,256,512
	C383.48,512,489.18,418.816,508.742,296.85z"/>
<path style="fill:#263230;" d="M282.924,85.715L136.359,233.903l132.421,20.778l101.854-81.258
	C352.141,135.356,320.993,104.206,282.924,85.715z"/>
<polygon style="fill:#F9BE02;" points="422.957,378.435 289.391,378.435 289.391,400.696 411.826,400.696 "/>
<rect x="411.826" y="333.913" style="fill:#FFFFFF;" width="22.261" height="66.783"/>
<path style="fill:#4C6460;" d="M200.348,89.043L142.777,256l57.571,166.957h166.956V256
	C367.304,163.792,292.556,89.043,200.348,89.043z"/>
<path style="fill:#616F6D;" d="M33.391,256c0,92.208,74.749,166.957,166.957,166.957V89.043
	C108.14,89.043,33.391,163.792,33.391,256z"/>
<path style="fill:#263230;" d="M200.348,122.435L165.505,256l34.843,133.565c73.766,0,133.565-59.799,133.565-133.565
	S274.114,122.435,200.348,122.435z"/>
<path style="fill:#394B48;" d="M66.783,256c0,73.766,59.799,133.565,133.565,133.565v-267.13
	C126.582,122.435,66.783,182.234,66.783,256z"/>
<polygon style="fill:#889391;" points="244.872,289.389 200.348,289.389 189.217,278.259 200.348,267.128 244.872,267.128 "/>
<rect x="155.826" y="267.13" style="fill:#B0B7B6;" width="44.522" height="22.261"/>
<polygon style="fill:#889391;" points="244.872,244.867 200.348,244.867 189.217,233.737 200.348,222.606 244.872,222.606 "/>
<rect x="155.826" y="222.609" style="fill:#B0B7B6;" width="44.522" height="22.261"/>
</svg>
