<?xml version="1.0" encoding="iso-8859-1"?>
<!-- Generator: Adobe Illustrator 19.0.0, SVG Export Plug-In . SVG Version: 6.00 Build 0)  -->
<!-- License: CC0. Made by SVG Repo: https://www.svgrepo.com/svg/267948/ruler -->
<svg version="1.1" id="Layer_1" xmlns="http://www.w3.org/2000/svg" xmlns:xlink="http://www.w3.org/1999/xlink" x="0px" y="0px"
	 viewBox="0 0 512.005 512.005" style="enable-background:new 0 0 512.005 512.005;" xml:space="preserve">
<polygon style="fill:#EEBA7D;" points="39.544,365.239 0.004,512.002 146.767,472.462 429.02,190.209 321.797,82.986 "/>
<polygon style="fill:#E68D2C;" points="0.004,512.002 146.767,472.462 429.02,190.209 375.409,136.597 "/>
<path style="fill:#E06B34;" d="M375.409,136.597l-53.611-53.611L66.349,338.434c-14.805,14.805-14.805,38.807,0,53.612
	c14.805,14.805,38.807,14.805,53.611,0c-14.805,14.805-14.805,38.807,0,53.611c14.805,14.805,38.807,14.805,53.611,0
	l255.448-255.448L375.409,136.597z"/>
<path style="fill:#D1393C;" d="M173.572,445.657c-14.805,14.805-38.807,14.805-53.611,0c-14.805-14.805-14.805-38.807,0-53.612
	l255.448-255.448l53.611,53.611L173.572,445.657z"/>
<path style="fill:#80CDD8;" d="M500.702,63.955l-52.65-52.65c-15.069-15.069-39.502-15.069-54.573,0L352.654,52.13l107.223,107.223
	l40.825-40.825C515.772,103.457,515.772,79.025,500.702,63.955z"/>
<path style="fill:#5293A9;" d="M500.702,63.955l-26.326-26.326c-13.742,13.742-68.112,68.112-68.112,68.112l53.612,53.612
	l40.825-40.825C515.772,103.457,515.772,79.025,500.702,63.955z"/>
<rect x="304.427" y="80.853" transform="matrix(-0.7071 -0.7071 0.7071 -0.7071 590.7927 479.3688)" style="fill:#AAAAAA;" width="180.501" height="72.948"/>
<g>
	
		<rect x="381.462" y="112.766" transform="matrix(-0.7071 -0.7071 0.7071 -0.7071 622.6957 556.4089)" style="fill:#818181;" width="90.245" height="72.948"/>
	<polygon style="fill:#818181;" points="0.004,512.002 80.157,490.408 21.598,431.849 	"/>
</g>
<polygon style="fill:#595959;" points="0.004,512.002 80.157,490.408 50.878,461.128 "/>
<rect x="163.128" y="-13.16" transform="matrix(-0.7071 0.7071 -0.7071 -0.7071 618.0319 256.0112)" style="fill:#A8EAEF;" width="185.732" height="538.329"/>
<rect x="242.399" y="-45.996" transform="matrix(-0.7071 0.7071 -0.7071 -0.7071 650.8753 176.7352)" style="fill:#80CDD8;" width="92.871" height="538.329"/>
<g>
	
		<rect x="29.958" y="132.281" transform="matrix(-0.7071 0.7071 -0.7071 -0.7071 204.3467 215.0265)" style="fill:#E9E9E9;" width="55.363" height="35.108"/>
	
		<rect x="68.034" y="170.344" transform="matrix(-0.7071 0.7071 -0.7071 -0.7071 296.2602 253.0805)" style="fill:#E9E9E9;" width="55.363" height="35.108"/>
	
		<rect x="102.314" y="199.283" transform="matrix(-0.7071 0.7071 -0.7071 -0.7071 397.266 269.1214)" style="fill:#E9E9E9;" width="81.165" height="35.108"/>
	
		<rect x="144.156" y="246.476" transform="matrix(-0.7071 0.7071 -0.7071 -0.7071 480.043 329.2195)" style="fill:#E9E9E9;" width="55.363" height="35.108"/>
	
		<rect x="182.229" y="284.542" transform="matrix(-0.7071 0.7071 -0.7071 -0.7071 571.9533 367.2812)" style="fill:#E9E9E9;" width="55.363" height="35.108"/>
	
		<rect x="216.509" y="313.481" transform="matrix(-0.7071 0.7071 -0.7071 -0.7071 672.9592 383.3221)" style="fill:#E9E9E9;" width="81.165" height="35.108"/>
	
		<rect x="258.362" y="360.674" transform="matrix(-0.7071 0.7071 -0.7071 -0.7071 755.7551 443.4124)" style="fill:#E9E9E9;" width="55.363" height="35.108"/>
	
		<rect x="296.423" y="398.74" transform="matrix(-0.7071 0.7071 -0.7071 -0.7071 847.6464 481.4819)" style="fill:#E9E9E9;" width="55.363" height="35.108"/>
	
		<rect x="330.711" y="427.687" transform="matrix(-0.7071 0.7071 -0.7071 -0.7071 948.6713 497.5307)" style="fill:#E9E9E9;" width="81.165" height="35.108"/>
</g>
</svg>
