<?xml version="1.0" encoding="utf-8"?>
<!-- License: PD. Made by Mary Akveo: https://maryakveo.com/ -->
<svg fill="#000000" width="800px" height="800px" viewBox="0 0 24 24" id="file-new" data-name="Flat Line" xmlns="http://www.w3.org/2000/svg" class="icon flat-line"><path id="secondary" d="M18,7.41V11a9,9,0,0,0-9,9H4a1,1,0,0,1-1-1V4A1,1,0,0,1,4,3h9.59a1,1,0,0,1,.7.29l3.42,3.42A1,1,0,0,1,18,7.41Z" style="fill: rgb(44, 169, 188); stroke-width: 2;"></path><path id="primary" d="M18,15v6m3-3H15" style="fill: none; stroke: rgb(0, 0, 0); stroke-linecap: round; stroke-linejoin: round; stroke-width: 2;"></path><path id="primary-2" data-name="primary" d="M10,20H4a1,1,0,0,1-1-1V4A1,1,0,0,1,4,3h9.59a1,1,0,0,1,.7.29l3.42,3.42a1,1,0,0,1,.29.7V11" style="fill: none; stroke: rgb(0, 0, 0); stroke-linecap: round; stroke-linejoin: round; stroke-width: 2;"></path></svg>