<?xml version="1.0" encoding="iso-8859-1"?>
<!-- Generator: Adobe Illustrator 19.0.0, SVG Export Plug-In . SVG Version: 6.00 Build 0)  -->
<!-- License: CC0. Made by SVG Repo: https://www.svgrepo.com/svg/118271/user -->
<svg version="1.1" id="Layer_1" xmlns="http://www.w3.org/2000/svg" xmlns:xlink="http://www.w3.org/1999/xlink" x="0px" y="0px"
	 viewBox="0 0 512 512" style="enable-background:new 0 0 512 512;" xml:space="preserve">
<g>
	<circle style="fill:#29ABE2;" cx="236.805" cy="127.857" r="117.658"/>
	<path style="fill:#29ABE2;" d="M400.385,318.357c-40.29-44.716-98.647-72.835-163.577-72.835
		c-121.571,0-220.125,98.553-220.125,220.125h313.895c-11.771-15.428-18.767-34.695-18.767-55.599
		C311.812,360.44,351.185,320.034,400.385,318.357z"/>
</g>
<path style="fill:#7AC943;" d="M403.564,318.297c-1.065,0-2.123,0.024-3.179,0.061c-49.201,1.676-88.574,42.083-88.574,91.692
	c0,20.903,6.996,40.171,18.767,55.599c16.763,21.97,43.217,36.152,72.987,36.152c50.674,0,91.752-41.078,91.752-91.752
	S454.237,318.297,403.564,318.297z"/>
<path d="M404.813,308.113c-1.684-1.797-3.389-3.58-5.139-5.33c-29.762-29.762-66.237-50.37-106.007-60.422
	c42.048-20.964,71.004-64.411,71.004-114.5C364.669,57.358,307.311,0,236.808,0c-70.502,0-127.86,57.358-127.86,127.86
	c0,50.089,28.957,93.536,71.004,114.5c-39.771,10.053-76.245,30.661-106.007,60.423c-43.502,43.502-67.46,101.341-67.46,162.864
	c0,5.633,4.566,10.199,10.199,10.199h309.072C344.472,497.944,372.406,512,403.564,512c56.216,0,101.951-45.735,101.951-101.951
	C505.515,354.25,460.455,308.785,404.813,308.113z M129.346,127.86c0-59.254,48.208-107.462,107.462-107.462
	S344.27,68.606,344.27,127.86s-48.208,107.463-107.462,107.463S129.346,187.116,129.346,127.86z M27.127,455.448
	c5.338-111.036,97.347-199.727,209.681-199.727c54.696,0,104.568,21.034,141.968,55.429c-44.276,11.102-77.164,51.23-77.164,98.898
	c0,16.302,3.852,31.72,10.686,45.4H27.127V455.448z M403.564,491.602c-44.969,0-81.554-36.585-81.554-81.553
	s36.585-81.553,81.554-81.553c44.968,0,81.553,36.585,81.553,81.553S448.532,491.602,403.564,491.602z"/>
<path d="M59.96,433.197c-0.789,0-1.591-0.092-2.392-0.285c-5.477-1.317-8.85-6.822-7.534-12.3
	c11.977-49.841,44.195-93.571,88.393-119.975c4.834-2.888,11.097-1.312,13.986,3.525c2.889,4.835,1.311,11.098-3.525,13.986
	c-39.517,23.608-68.318,62.692-79.021,107.23C68.746,430.055,64.566,433.197,59.96,433.197z"/>
<path d="M194.638,298.875c-4.618,0-8.802-3.158-9.915-7.846c-1.3-5.481,2.088-10.978,7.568-12.279
	c14.501-3.442,29.48-5.187,44.517-5.187c5.633,0,10.199,4.566,10.199,10.199s-4.566,10.199-10.199,10.199
	c-13.454,0-26.846,1.559-39.807,4.636C196.209,298.786,195.418,298.875,194.638,298.875z"/>
<path d="M445.608,401.697h-31.696v-31.696c0-5.633-4.567-10.199-10.199-10.199c-5.632,0-10.199,4.566-10.199,10.199v31.696h-31.696
	c-5.632,0-10.199,4.566-10.199,10.199s4.567,10.199,10.199,10.199h31.696v31.697c0,5.633,4.567,10.199,10.199,10.199
	c5.632,0,10.199-4.566,10.199-10.199v-31.697h31.696c5.632,0,10.199-4.566,10.199-10.199S451.24,401.697,445.608,401.697z"/>
</svg>
