<?xml version="1.0" ?>

<!DOCTYPE svg  PUBLIC '-//W3C//DTD SVG 1.1//EN'  'http://www.w3.org/Graphics/SVG/1.1/DTD/svg11.dtd'>

<!-- License: CC Attribution. Made by Agus Triana: https://www.agustriana.my.id/ -->
<svg width="800px" height="800px" viewBox="0 0 13333.33 13333.33" style="shape-rendering:geometricPrecision; text-rendering:geometricPrecision; image-rendering:optimizeQuality; fill-rule:evenodd; clip-rule:evenodd" version="1.1" xml:space="preserve" xmlns="http://www.w3.org/2000/svg" xmlns:xlink="http://www.w3.org/1999/xlink" xmlns:xodm="http://www.corel.com/coreldraw/odm/2003">

<defs>

<style type="text/css">
   <![CDATA[
    .fil0 {fill:none}
    .fil3 {fill:#039BE5}
    .fil1 {fill:#03A9F4}
    .fil4 {fill:#4FC3F7}
    .fil2 {fill:#FFFF66}
   ]]>
  </style>

</defs>

<g id="Layer_x0020_1">

<rect class="fil0" height="13333.33" width="13333.33" x="-0" y="-0.01"/>

<path class="fil1" d="M5134.53 2836.1c257.97,-590.18 847.01,-1002.76 1532.14,-1002.76 685.13,0 1274.16,412.58 1532.13,1002.76l266.54 0c1063.69,0 1931.61,867.93 1931.61,1931.61l0 4800.67c0,1063.68 -867.93,1931.61 -1931.61,1931.61l-3597.35 0c-1063.69,0 -1931.61,-867.93 -1931.61,-1931.61l0 -4800.67c0,-1063.69 867.93,-1931.61 1931.61,-1931.61l266.54 0z"/>

<path class="fil2" d="M4867.99 3504.61l795.91 0c0,-553.81 448.95,-1002.76 1002.77,-1002.76 553.81,0 1002.76,448.95 1002.76,1002.76l795.91 0c694.7,0 1263.1,568.4 1263.1,1263.11l0 4800.67c0,694.7 -568.4,1263.1 -1263.1,1263.1l-3597.35 0c-694.71,0 -1263.11,-568.4 -1263.11,-1263.1l0 -4800.67c0,-694.71 568.4,-1263.11 1263.11,-1263.11zm1798.68 -422.5c233.34,0 422.5,189.16 422.5,422.5 0,233.34 -189.16,422.5 -422.5,422.5 -233.34,0 -422.5,-189.16 -422.5,-422.5 0,-233.34 189.16,-422.5 422.5,-422.5z"/>

<rect class="fil3" height="556.2" rx="278.1" ry="278.1" width="3658.09" x="4837.62" y="5262.85"/>

<rect class="fil3" height="556.2" rx="278.1" ry="278.1" width="3658.09" x="4837.62" y="7054.46"/>

<rect class="fil3" height="556.2" rx="278.1" ry="278.1" width="3658.09" x="4837.62" y="8846.07"/>

<path class="fil1" d="M5171.87 8733.76l2989.6 0c183.84,0 334.25,150.41 334.25,334.25l0 0c0,183.84 -150.41,334.26 -334.25,334.26l-2989.6 0c-183.84,0 -334.25,-150.41 -334.25,-334.26l0 0c0,-183.84 150.41,-334.25 334.25,-334.25zm0 -3583.22l2989.6 0c183.84,0 334.25,150.41 334.25,334.25l0 0c0,183.84 -150.41,334.26 -334.25,334.26l-2989.6 0c-183.84,0 -334.25,-150.41 -334.25,-334.26l0 0c0,-183.84 150.41,-334.25 334.25,-334.25zm0 1791.61l2989.6 0c183.84,0 334.25,150.41 334.25,334.26l0 0c0,183.84 -150.41,334.25 -334.25,334.25l-2989.6 0c-183.84,0 -334.25,-150.41 -334.25,-334.25l0 0c0,-183.84 150.41,-334.26 334.25,-334.26z"/>

<path class="fil4" d="M4838.91 7305.78l-1234.02 0 0 2262.61c0,694.71 568.39,1263.11 1263.1,1263.11l3597.35 0c694.7,0 1263.1,-568.4 1263.1,-1263.11l0 -2262.61 -1234.02 0c0.85,8.81 1.29,17.75 1.29,26.78 0,152.96 -125.15,278.1 -278.1,278.1l-56.15 0 -2989.6 0 -56.15 0c-152.96,0 -278.1,-125.14 -278.1,-278.1 0,-9.03 0.44,-17.96 1.29,-26.78zm332.96 1427.99l2989.6 0c183.84,0 334.25,150.41 334.25,334.25 0,9.89 -0.43,19.69 -1.29,29.37 0.85,8.81 1.29,17.75 1.29,26.79 0,152.95 -125.15,278.1 -278.1,278.1l-56.15 0 -2989.6 0 -56.15 0c-152.96,0 -278.1,-125.15 -278.1,-278.1 0,-9.03 0.44,-17.97 1.29,-26.78 -0.86,-9.68 -1.29,-19.48 -1.29,-29.37 0,-183.84 150.41,-334.25 334.25,-334.25z"/>

</g>

</svg>