<?xml version="1.0" encoding="iso-8859-1"?>
<!-- Generator: Adobe Illustrator 19.0.0, SVG Export Plug-In . SVG Version: 6.00 Build 0)  -->
<!-- License: CC0. Made by SVG Repo: https://www.svgrepo.com/svg/276348/agenda-phone-number -->
<svg version="1.1" id="Layer_1" xmlns="http://www.w3.org/2000/svg" xmlns:xlink="http://www.w3.org/1999/xlink" x="0px" y="0px"
	 viewBox="0 0 512 512" style="enable-background:new 0 0 512 512;" xml:space="preserve">
<g>
	<g>
		<path style="fill:#BDC3C7;" d="M92.687,61.793h-35.31c-4.873,0-8.828-3.946-8.828-8.828s3.955-8.828,8.828-8.828h35.31
			c4.873,0,8.828,3.946,8.828,8.828S97.56,61.793,92.687,61.793"/>
		<path style="fill:#BDC3C7;" d="M92.687,97.103h-35.31c-4.873,0-8.828-3.946-8.828-8.828s3.955-8.828,8.828-8.828h35.31
			c4.873,0,8.828,3.946,8.828,8.828S97.56,97.103,92.687,97.103"/>
		<path style="fill:#BDC3C7;" d="M92.687,132.414h-35.31c-4.873,0-8.828-3.946-8.828-8.828s3.955-8.828,8.828-8.828h35.31
			c4.873,0,8.828,3.946,8.828,8.828S97.56,132.414,92.687,132.414"/>
		<path style="fill:#BDC3C7;" d="M92.687,167.724h-35.31c-4.873,0-8.828-3.946-8.828-8.828c0-4.882,3.955-8.828,8.828-8.828h35.31
			c4.873,0,8.828,3.946,8.828,8.828C101.515,163.778,97.56,167.724,92.687,167.724"/>
		<path style="fill:#BDC3C7;" d="M92.687,203.034h-35.31c-4.873,0-8.828-3.946-8.828-8.828s3.955-8.828,8.828-8.828h35.31
			c4.873,0,8.828,3.946,8.828,8.828S97.56,203.034,92.687,203.034"/>
		<path style="fill:#BDC3C7;" d="M92.687,238.345h-35.31c-4.873,0-8.828-3.946-8.828-8.828s3.955-8.828,8.828-8.828h35.31
			c4.873,0,8.828,3.946,8.828,8.828S97.56,238.345,92.687,238.345"/>
		<path style="fill:#BDC3C7;" d="M92.687,273.655h-35.31c-4.873,0-8.828-3.946-8.828-8.828S52.504,256,57.377,256h35.31
			c4.873,0,8.828,3.946,8.828,8.828S97.56,273.655,92.687,273.655"/>
		<path style="fill:#BDC3C7;" d="M92.687,308.966h-35.31c-4.873,0-8.828-3.946-8.828-8.828c0-4.882,3.955-8.828,8.828-8.828h35.31
			c4.873,0,8.828,3.946,8.828,8.828C101.515,305.02,97.56,308.966,92.687,308.966"/>
		<path style="fill:#BDC3C7;" d="M92.687,344.276h-35.31c-4.873,0-8.828-3.946-8.828-8.828c0-4.882,3.955-8.828,8.828-8.828h35.31
			c4.873,0,8.828,3.946,8.828,8.828C101.515,340.33,97.56,344.276,92.687,344.276"/>
		<path style="fill:#BDC3C7;" d="M92.687,379.586h-35.31c-4.873,0-8.828-3.946-8.828-8.828c0-4.882,3.955-8.828,8.828-8.828h35.31
			c4.873,0,8.828,3.946,8.828,8.828C101.515,375.64,97.56,379.586,92.687,379.586"/>
		<path style="fill:#BDC3C7;" d="M92.687,414.897h-35.31c-4.873,0-8.828-3.946-8.828-8.828c0-4.882,3.955-8.828,8.828-8.828h35.31
			c4.873,0,8.828,3.946,8.828,8.828C101.515,410.951,97.56,414.897,92.687,414.897"/>
	</g>
	<path style="fill:#F8EDCD;" d="M110.343,441.379c-20.648,0-37.146,17.717-35.143,38.78C76.948,498.52,93.42,512,111.861,512
		h240.675c32.009,0,57.944-25.935,57.944-57.935v-12.685H110.343z"/>
	<path style="fill:#D1C6A7;" d="M366.343,485.517H119.17c-4.873,0-8.828-3.946-8.828-8.828c0-4.882,3.955-8.828,8.828-8.828h247.172
		c4.873,0,8.828,3.946,8.828,8.828C375.17,481.571,371.215,485.517,366.343,485.517"/>
	<path style="fill:#C03A2B;" d="M410.481,441.379H110.343c-19.5,0-35.31,15.81-35.31,35.31V35.31c0-19.5,15.81-35.31,35.31-35.31
		h353.103v52.966c-29.272,0-52.966,23.693-52.966,52.966V441.379z"/>
	<polygon style="fill:#D1C6A7;" points="410.481,158.897 463.446,158.897 463.446,105.931 410.481,105.931 	"/>
	<polygon style="fill:#F8EDCD;" points="410.481,211.862 463.446,211.862 463.446,158.897 410.481,158.897 	"/>
	<polygon style="fill:#D1C6A7;" points="410.481,264.828 463.446,264.828 463.446,211.862 410.481,211.862 	"/>
	<polygon style="fill:#F8EDCD;" points="410.481,317.793 463.446,317.793 463.446,264.828 410.481,264.828 	"/>
	<path style="fill:#D1C6A7;" d="M437.886,370.759h-27.401v-52.966h52.966v27.401C463.45,359.318,452.01,370.759,437.886,370.759"/>
	<path style="fill:#F8EDCD;" d="M410.481,105.931h52.966V52.966C434.174,52.966,410.481,76.659,410.481,105.931"/>
	<path style="fill:#F0C419;" d="M338.308,269.655c-6.453-12.2-30.252-26.147-30.252-26.147c-5.385-3.072-11.882-3.407-14.954,2.057
		c0,0-7.733,9.278-9.702,10.62c-8.986,6.082-17.311,5.853-25.706-2.551l-19.527-19.527l-19.527-19.527
		c-8.395-8.395-8.633-16.719-2.551-25.706c1.342-1.969,10.611-9.702,10.611-9.702c5.473-3.072,5.129-9.569,2.057-14.954
		c0,0-13.948-23.799-26.138-30.252c-5.191-2.745-11.564-1.783-15.713,2.357l-8.616,8.633
		c-27.357,27.348-13.895,58.227,13.462,85.575l24.991,24.991l25,25c27.348,27.348,58.227,40.81,85.575,13.471l8.625-8.633
		C340.091,281.22,341.053,274.846,338.308,269.655"/>
</g>
</svg>
