<?xml version="1.0" encoding="iso-8859-1"?>
<!-- Generator: Adobe Illustrator 19.0.0, SVG Export Plug-In . SVG Version: 6.00 Build 0)  -->
<!-- License: CC0. Made by SVG Repo: https://www.svgrepo.com/svg/232259/text-edit-tools -->
<svg version="1.1" id="Layer_1" xmlns="http://www.w3.org/2000/svg" xmlns:xlink="http://www.w3.org/1999/xlink" x="0px" y="0px"
	 viewBox="0 0 512 512" style="enable-background:new 0 0 512 512;" xml:space="preserve">
<path style="fill:#C6D7E4;" d="M492.108,0H19.892C10.154,0,2.258,7.895,2.258,17.634v476.732c0,9.739,7.895,17.634,17.634,17.634
	h472.215c9.739,0,17.634-7.895,17.634-17.634V17.634C509.742,7.895,501.846,0,492.108,0z"/>
<path style="fill:#EBEFFA;" d="M257.668,0H19.892C10.154,0,2.258,7.895,2.258,17.634v476.732c0,9.739,7.895,17.634,17.634,17.634
	h237.777V0H257.668z"/>
<path style="fill:#6AB4F0;" d="M509.742,17.634C509.742,7.895,501.846,0,492.108,0H19.892C10.154,0,2.258,7.895,2.258,17.634
	v142.987h507.483V17.634z"/>
<path style="fill:#9EDFFA;" d="M257.668,0H19.892C10.154,0,2.258,7.895,2.258,17.634v142.987h255.411V0H257.668z"/>
<g>
	<path style="fill:#0B2A96;" d="M398.85,275.479H116.487c-9.739,0-17.634-7.895-17.634-17.634c0-9.739,7.895-17.634,17.634-17.634
		H398.85c9.739,0,17.634,7.895,17.634,17.634C416.484,267.583,408.589,275.479,398.85,275.479z"/>
	<path style="fill:#0B2A96;" d="M398.85,350.1H116.487c-9.739,0-17.634-7.895-17.634-17.634c0-9.739,7.895-17.634,17.634-17.634
		H398.85c9.739,0,17.634,7.895,17.634,17.634C416.484,342.205,408.589,350.1,398.85,350.1z"/>
	<path style="fill:#0B2A96;" d="M398.85,420.163H116.487c-9.739,0-17.634-7.895-17.634-17.634c0-9.739,7.895-17.634,17.634-17.634
		H398.85c9.739,0,17.634,7.895,17.634,17.634C416.484,412.267,408.589,420.163,398.85,420.163z"/>
</g>
<g>
	<path style="fill:#044FC7;" d="M256,240.21H116.487c-9.739,0-17.634,7.895-17.634,17.634c0,9.739,7.895,17.634,17.634,17.634H256
		V240.21z"/>
	<path style="fill:#044FC7;" d="M256,314.832H116.487c-9.739,0-17.634,7.895-17.634,17.634c0,9.739,7.895,17.634,17.634,17.634H256
		V314.832z"/>
	<path style="fill:#044FC7;" d="M256,384.895H116.487c-9.739,0-17.634,7.895-17.634,17.634c0,9.739,7.895,17.634,17.634,17.634H256
		V384.895z"/>
</g>
<path style="fill:#F22F0A;" d="M398.395,68.994H113.605c-4.869,0-8.817,3.947-8.817,8.817v103.04c0,3.178,1.711,6.111,4.477,7.674
	c2.767,1.564,6.161,1.519,8.885-0.12c11.415-6.867,24.489-10.496,37.807-10.496h45.584v254.045c0,4.871,3.948,8.817,8.817,8.817
	h91.283c4.871,0,8.817-3.947,8.817-8.817V177.91h45.583c13.318,0,26.392,3.629,37.807,10.496c2.725,1.64,6.119,1.683,8.885,0.12
	c2.767-1.564,4.478-4.497,4.478-7.674V77.811C407.212,72.94,403.266,68.994,398.395,68.994z"/>
<path style="fill:#FF7F28;" d="M257.668,68.994H113.605c-4.869,0-8.817,3.947-8.817,8.817v103.04c0,3.178,1.711,6.111,4.477,7.674
	c2.767,1.564,6.161,1.519,8.885-0.12c11.415-6.867,24.489-10.496,37.807-10.496h45.584v254.045c0,4.871,3.948,8.817,8.817,8.817
	h47.311V68.994H257.668z"/>
</svg>
