<?xml version="1.0" encoding="iso-8859-1"?>
<!-- Generator: Adobe Illustrator 19.0.0, SVG Export Plug-In . SVG Version: 6.00 Build 0)  -->
<!-- License: CC0. Made by SVG Repo: https://www.svgrepo.com/svg/111320/notes -->
<svg version="1.1" id="Layer_1" xmlns="http://www.w3.org/2000/svg" xmlns:xlink="http://www.w3.org/1999/xlink" x="0px" y="0px"
	 viewBox="0 0 489.665 489.665" style="enable-background:new 0 0 489.665 489.665;" xml:space="preserve">
<g>
	<path style="fill:#FCC062;" d="M320.504,88.328c0-0.448,0.046-0.884,0.12-1.311h-46.027c0.074,0.427,0.12,0.863,0.12,1.311
		c0,4.215-3.417,7.63-7.631,7.63H221.3v68.815h61.048c4.214,0,7.631,3.415,7.631,7.63v137.361h184.423V95.959H328.135
		C323.921,95.959,320.504,92.544,320.504,88.328z M434.971,279.373H320.504c-4.214,0-7.631-3.415-7.631-7.63s3.417-7.63,7.631-7.63
		h114.467c4.214,0,7.631,3.415,7.631,7.63C442.602,275.958,439.185,279.373,434.971,279.373z M434.971,233.452H320.504
		c-4.214,0-7.631-3.415-7.631-7.63c0-4.215,3.417-7.63,7.631-7.63h114.467c4.214,0,7.631,3.415,7.631,7.63
		C442.602,230.037,439.185,233.452,434.971,233.452z M434.971,187.533H320.504c-4.214,0-7.631-3.415-7.631-7.63
		c0-4.215,3.417-7.63,7.631-7.63h114.467c4.214,0,7.631,3.415,7.631,7.63C442.602,184.117,439.185,187.533,434.971,187.533z
		 M442.602,134.115c0,4.215-3.417,7.63-7.631,7.63H259.456c-4.214,0-7.631-3.415-7.631-7.63c0-4.215,3.417-7.63,7.631-7.63h175.515
		C439.185,126.485,442.602,129.9,442.602,134.115z"/>
	<path style="fill:#FCC062;" d="M274.718,225.822h-30.525c-4.214,0-7.631-3.415-7.631-7.63h-45.786c0,4.215-3.417,7.63-7.631,7.63
		H15.262v213.67h167.883v-76.311c0-4.215,3.417-7.63,7.631-7.63h83.942V225.822z M53.417,256.348h183.145
		c4.214,0,7.631,3.415,7.631,7.63s-3.417,7.63-7.631,7.63H53.417c-4.214,0-7.631-3.415-7.631-7.63S49.203,256.348,53.417,256.348z
		 M144.99,408.968H53.417c-4.214,0-7.631-3.415-7.631-7.63s3.417-7.63,7.631-7.63h91.573c4.214,0,7.631,3.415,7.631,7.63
		C152.621,405.552,149.204,408.968,144.99,408.968z M144.99,363.181H53.417c-4.214,0-7.631-3.415-7.631-7.63s3.417-7.63,7.631-7.63
		h91.573c4.214,0,7.631,3.415,7.631,7.63C152.621,359.766,149.204,363.181,144.99,363.181z M236.562,317.394H53.417
		c-4.214,0-7.631-3.415-7.631-7.63s3.417-7.63,7.631-7.63h183.145c4.214,0,7.631,3.415,7.631,7.63
		C244.193,313.979,240.777,317.394,236.562,317.394z"/>
	<polygon style="fill:#FDD089;" points="262.733,370.811 198.407,370.811 198.407,429.776 	"/>
	<path style="fill:#FBB03B;" d="M236.562,218.191c0-4.215,3.417-7.63,7.631-7.63h30.525v-30.526H15.262v30.526h167.883
		c4.214,0,7.631,3.415,7.631,7.63H236.562z"/>
	<path style="fill:#FBB03B;" d="M328.135,80.698h146.268V50.174H221.301v30.525h45.786c3.766,0,6.888,2.731,7.511,6.319h46.027
		C321.247,83.429,324.369,80.698,328.135,80.698z"/>
	<path d="M482.035,34.913H213.67c-4.214,0-7.631,3.415-7.631,7.63v122.231H7.631c-4.214,0-7.631,3.415-7.631,7.63v274.718
		c0,4.215,3.417,7.63,7.631,7.63h183.145c1.91,0,3.749-0.715,5.156-2.005l91.573-83.942c1.577-1.445,2.475-3.486,2.475-5.625
		v-38.155h192.054c4.214,0,7.631-3.415,7.631-7.63V42.543C489.666,38.328,486.249,34.913,482.035,34.913z M262.733,370.811
		l-64.325,58.965v-58.965H262.733z M190.776,355.551c-4.214,0-7.631,3.415-7.631,7.63v76.311H15.262v-213.67h167.883
		c4.214,0,7.631-3.415,7.631-7.63s-3.417-7.63-7.631-7.63H15.262v-30.526h259.456v30.526h-30.525c-4.214,0-7.631,3.415-7.631,7.63
		s3.417,7.63,7.631,7.63h30.525v129.729L190.776,355.551L190.776,355.551z M474.404,309.765H289.98V172.404
		c0-4.215-3.417-7.63-7.631-7.63h-61.048V95.959h45.786c4.214,0,7.631-3.415,7.631-7.63c0-0.448-0.046-0.884-0.12-1.311
		c-0.623-3.589-3.744-6.319-7.511-6.319h-45.786V50.174h253.103v30.525H328.135c-3.767,0-6.888,2.731-7.511,6.319
		c-0.074,0.427-0.12,0.863-0.12,1.311c0,4.215,3.417,7.63,7.631,7.63h146.268L474.404,309.765L474.404,309.765z"/>
	<path d="M53.417,271.609h183.145c4.214,0,7.631-3.415,7.631-7.63s-3.417-7.63-7.631-7.63H53.417c-4.214,0-7.631,3.415-7.631,7.63
		C45.786,268.193,49.203,271.609,53.417,271.609z"/>
	<path d="M244.193,309.764c0-4.215-3.417-7.63-7.631-7.63H53.417c-4.214,0-7.631,3.415-7.631,7.63s3.417,7.63,7.631,7.63h183.145
		C240.777,317.394,244.193,313.979,244.193,309.764z"/>
	<path d="M144.99,347.92H53.417c-4.214,0-7.631,3.415-7.631,7.63s3.417,7.63,7.631,7.63h91.573c4.214,0,7.631-3.415,7.631-7.63
		C152.621,351.335,149.204,347.92,144.99,347.92z"/>
	<path d="M144.99,393.707H53.417c-4.214,0-7.631,3.415-7.631,7.63s3.417,7.63,7.631,7.63h91.573c4.214,0,7.631-3.415,7.631-7.63
		C152.621,397.122,149.204,393.707,144.99,393.707z"/>
	<path d="M251.825,134.115c0,4.215,3.417,7.63,7.631,7.63h175.515c4.214,0,7.631-3.415,7.631-7.63c0-4.215-3.417-7.63-7.631-7.63
		H259.456C255.242,126.485,251.825,129.9,251.825,134.115z"/>
	<path d="M434.971,172.272H320.504c-4.214,0-7.631,3.415-7.631,7.63c0,4.215,3.417,7.63,7.631,7.63h114.467
		c4.214,0,7.631-3.415,7.631-7.63C442.602,175.687,439.185,172.272,434.971,172.272z"/>
	<path d="M434.971,218.191H320.504c-4.214,0-7.631,3.415-7.631,7.63c0,4.215,3.417,7.63,7.631,7.63h114.467
		c4.214,0,7.631-3.415,7.631-7.63C442.602,221.607,439.185,218.191,434.971,218.191z"/>
	<path d="M434.971,264.112H320.504c-4.214,0-7.631,3.415-7.631,7.63s3.417,7.63,7.631,7.63h114.467c4.214,0,7.631-3.415,7.631-7.63
		C442.602,267.528,439.185,264.112,434.971,264.112z"/>
</g>
</svg>
