<?xml version="1.0" encoding="iso-8859-1"?>
<!-- Generator: Adobe Illustrator 19.0.0, SVG Export Plug-In . SVG Version: 6.00 Build 0)  -->
<!-- License: CC0. Made by SVG Repo: https://www.svgrepo.com/svg/196157/time -->
<svg version="1.1" id="Layer_1" xmlns="http://www.w3.org/2000/svg" xmlns:xlink="http://www.w3.org/1999/xlink" x="0px" y="0px"
	 viewBox="0 0 512 512" style="enable-background:new 0 0 512 512;" xml:space="preserve">
<path style="fill:#CFF09E;" d="M473.788,322.383l-26.779-21.755c3.343-14.333,5.108-29.278,5.108-44.622
	c0-15.357-1.765-30.29-5.108-44.632l26.779-21.755c8.865-7.201,11.185-19.775,5.475-29.667l-28.448-49.279
	c-5.711-9.893-17.763-14.171-28.434-10.092l-32.278,12.337c-21.698-20.346-48.033-35.808-77.241-44.644l-5.455-34.075
	c-1.805-11.277-11.534-19.573-22.955-19.573h-56.902c-11.422,0-21.153,8.298-22.956,19.576l-5.449,34.071
	c-29.217,8.836-55.551,24.299-77.251,44.644L89.626,100.58c-10.67-4.079-22.722,0.199-28.434,10.091l-28.453,49.28
	c-5.711,9.892-3.391,22.466,5.474,29.669l26.776,21.754c-3.329,14.342-5.105,29.274-5.105,44.632c0,15.345,1.777,30.29,5.105,44.622
	l-26.776,21.754c-8.865,7.203-11.185,19.777-5.474,29.669l28.453,49.277c5.712,9.892,17.764,14.17,28.434,10.091l32.269-12.336
	c21.698,20.357,48.033,35.821,77.251,44.656l5.448,34.06c1.805,11.278,11.534,19.576,22.956,19.576h56.904
	c11.42,0,21.15-8.295,22.956-19.572l5.455-34.063c29.208-8.836,55.542-24.299,77.241-44.656l32.278,12.336
	c10.67,4.079,22.722-0.2,28.433-10.092l28.448-49.276C484.973,342.159,482.652,329.585,473.788,322.383z M256,403.2
	c-81.296,0-147.201-65.904-147.201-147.201s65.905-147.2,147.201-147.2S403.202,174.703,403.202,256S337.296,403.2,256,403.2z"/>
<g>
	<path style="fill:#507C5C;" d="M284.454,512H227.55c-18.715,0-34.442-13.412-37.398-31.892l-4.039-25.249
		c-24.533-8.64-47.524-21.932-67.334-38.929l-23.931,9.148c-4.339,1.658-8.886,2.499-13.516,2.499
		c-13.49,0-26.059-7.257-32.804-18.939l-28.453-49.276c-9.357-16.205-5.607-36.532,8.918-48.332l19.86-16.135
		c-2.388-12.802-3.595-25.844-3.595-38.889c0-13.044,1.207-26.089,3.595-38.898L28.99,200.971
		c-14.524-11.8-18.273-32.127-8.917-48.332l28.453-49.28C55.271,91.676,67.842,84.42,81.331,84.42c4.63,0,9.177,0.841,13.516,2.499
		l23.934,9.149c19.812-16.989,42.804-30.279,67.331-38.917l4.039-25.261C193.108,13.412,208.835,0,227.55,0h56.902
		c18.712,0,34.439,13.409,37.396,31.886l4.045,25.267c24.527,8.639,47.512,21.928,67.324,38.917l23.942-9.151
		c4.339-1.658,8.886-2.499,13.514-2.499c13.493,0,26.062,7.258,32.807,18.942l28.448,49.279c9.354,16.205,5.604,36.53-8.919,48.33
		l-19.86,16.134c2.387,12.77,3.593,25.818,3.593,38.903c0,13.086-1.207,26.13-3.592,38.894l19.859,16.132
		c14.522,11.798,18.273,32.124,8.918,48.33l-28.446,49.276c-6.743,11.682-19.315,18.94-32.806,18.94c0,0,0,0-0.001,0
		c-4.629,0-9.174-0.841-13.513-2.499l-23.94-9.149c-19.809,16.995-42.797,30.287-67.327,38.929l-4.045,25.256
		C318.891,498.589,303.164,512,284.454,512z M121.892,384.458c3.656,0,7.249,1.37,10.01,3.96
		c20.277,19.025,44.994,33.315,71.476,41.323c5.36,1.62,9.323,6.158,10.206,11.688l5.449,34.06c0.674,4.207,4.254,7.261,8.516,7.261
		h56.904c4.26,0,7.84-3.052,8.514-7.26l5.453-34.063c0.885-5.528,4.847-10.065,10.206-11.686
		c26.478-8.01,51.193-22.299,71.47-41.323c4.085-3.832,9.996-4.994,15.227-2.995l32.278,12.336c0.992,0.379,2.025,0.572,3.073,0.572
		c3.074,0,5.939-1.654,7.475-4.316l28.446-49.276c2.129-3.69,1.275-8.318-2.031-11.005l-26.78-21.754
		c-4.343-3.529-6.291-9.225-5.021-14.674c3.137-13.441,4.727-27.338,4.727-41.3c0-13.961-1.591-27.86-4.727-41.31
		c-1.271-5.449,0.679-11.145,5.021-14.673l26.78-21.755c3.308-2.687,4.162-7.314,2.031-11.005l-28.446-49.279
		c-1.537-2.662-4.402-4.316-7.476-4.316c-1.047,0-2.081,0.192-3.074,0.572l-32.275,12.336c-5.233,2.001-11.141,0.837-15.224-2.992
		c-20.284-19.021-45-33.306-71.473-41.314c-5.358-1.62-9.322-6.158-10.206-11.686l-5.453-34.075c-0.674-4.206-4.254-7.26-8.516-7.26
		H227.55c-4.262,0-7.842,3.054-8.516,7.263l-5.448,34.071c-0.885,5.53-4.848,10.069-10.208,11.689
		c-26.479,8.005-51.196,22.292-71.48,41.311c-4.082,3.829-9.993,4.991-15.224,2.992l-32.269-12.336
		c-0.993-0.379-2.027-0.572-3.074-0.572c-3.074,0-5.938,1.653-7.473,4.314l-28.453,49.28c-2.131,3.69-1.277,8.318,2.03,11.005
		l26.777,21.754c4.338,3.525,6.289,9.212,5.025,14.657c-3.138,13.517-4.728,27.421-4.728,41.324c0,13.906,1.591,27.807,4.728,41.314
		c1.264,5.445-0.686,11.134-5.025,14.658l-26.776,21.754c-3.308,2.687-4.162,7.315-2.031,11.005l28.453,49.277
		c1.537,2.662,4.4,4.316,7.473,4.316c1.047,0,2.081-0.193,3.073-0.572l32.27-12.336
		C118.371,384.774,120.139,384.458,121.892,384.458z M256,417.826c-89.231,0-161.824-72.594-161.824-161.826
		S166.769,94.176,256,94.176S417.825,166.77,417.825,256S345.232,417.826,256,417.826z M256,123.425
		c-73.102,0-132.575,59.473-132.575,132.575c0,73.103,59.473,132.577,132.575,132.577S388.576,329.103,388.576,256
		C388.576,182.898,329.102,123.425,256,123.425z"/>
	<path style="fill:#507C5C;" d="M325.796,302.686h-95.717c-8.076,0-14.624-6.547-14.624-14.624V177.142
		c0-8.077,6.549-14.624,14.624-14.624h50.354c8.076,0,14.624,6.547,14.624,14.624v60.566c0,8.077-6.549,14.624-14.624,14.624
		s-14.624-6.547-14.624-14.624v-45.941h-21.105v81.67h81.093c8.076,0,14.624,6.547,14.624,14.624S333.871,302.686,325.796,302.686z"
		/>
</g>
</svg>
