<?xml version="1.0" encoding="iso-8859-1"?>
<!-- Generator: Adobe Illustrator 19.0.0, SVG Export Plug-In . SVG Version: 6.00 Build 0)  -->
<!-- License: CC0. Made by SVG Repo: https://www.svgrepo.com/svg/221899/destroyed-planet -->
<svg version="1.1" id="Layer_1" xmlns="http://www.w3.org/2000/svg" xmlns:xlink="http://www.w3.org/1999/xlink" x="0px" y="0px"
	 viewBox="0 0 512 512" style="enable-background:new 0 0 512 512;" xml:space="preserve">
<g transform="translate(1)">
	<g>
		<polygon style="fill:#FD9808;" points="363.475,39.051 328.763,99.797 328.763,143.186 398.186,82.441 		"/>
		<polygon style="fill:#FD9808;" points="493.644,273.356 458.932,247.322 424.22,273.356 432.898,325.424 484.966,325.424 		"/>
		<polygon style="fill:#FD9808;" points="372.153,177.898 372.153,221.288 502.322,169.22 450.254,99.797 		"/>
		<polygon style="fill:#FD9808;" points="406.864,394.847 380.831,446.915 406.864,481.627 476.288,472.949 476.288,429.559 
			450.254,386.169 		"/>
	</g>
	<path style="fill:#FFFFFF;" d="M311.407,472.949v-69.424l52.068-26.034l17.356-60.746l-34.712-17.356l-8.678-52.068l-69.424-17.356
		l26.034-60.746l-26.034-52.068l44.258-63.349c-24.298-9.546-51.2-14.753-78.969-14.753c-124.963,0-225.627,100.664-225.627,225.627
		s100.664,225.627,225.627,225.627c26.902,0,52.936-5.207,76.366-13.017L311.407,472.949z"/>
	<path style="fill:#FFDD09;" d="M316.614,472.949v-69.424l48.597-26.034l16.488-60.746L349.59,299.39l-7.81-52.068l-64.217-17.356
		l24.298-60.746l-24.298-52.068l41.654-63.349c-25.166-9.546-49.464-14.753-75.498-14.753
		c-116.285,0-210.007,100.664-210.007,225.627s93.722,225.627,210.007,225.627c25.166,0,48.597-5.207,71.159-13.017L316.614,472.949
		z"/>
	<path d="M328.763,203.932c0,5.207-3.471,8.678-8.678,8.678s-8.678-3.471-8.678-8.678s3.471-8.678,8.678-8.678
		S328.763,198.725,328.763,203.932"/>
	<path d="M441.576,21.695c0,5.207-3.471,8.678-8.678,8.678c-5.207,0-8.678-3.471-8.678-8.678s3.471-8.678,8.678-8.678
		C438.105,13.017,441.576,16.488,441.576,21.695"/>
	<path d="M493.644,212.61c0,5.207-3.471,8.678-8.678,8.678c-5.207,0-8.678-3.471-8.678-8.678s3.471-8.678,8.678-8.678
		C490.173,203.932,493.644,207.403,493.644,212.61"/>
	<path d="M33.712,65.085c0,5.207-3.471,8.678-8.678,8.678s-8.678-3.471-8.678-8.678s3.471-8.678,8.678-8.678
		S33.712,59.878,33.712,65.085"/>
	<path d="M328.763,151.864c-0.868,0-2.603,0-3.471-0.868c-3.471-1.736-5.207-4.339-5.207-7.81v-43.39c0-1.736,0-2.603,0.868-4.339
		l34.712-60.746c1.736-2.603,4.339-4.339,6.942-4.339s6.075,0.868,7.81,3.471l34.712,43.39c2.603,3.471,2.603,8.678-0.868,12.149
		l-69.424,60.746C333.102,150.997,330.498,151.864,328.763,151.864z M337.441,102.4v21.695l48.597-42.522l-21.695-26.902
		L337.441,102.4z"/>
	<path d="M484.966,334.102h-52.068c-4.339,0-7.81-3.471-8.678-6.942l-8.678-52.068c-0.868-3.471,0.868-6.075,3.471-8.678
		l34.712-26.034c3.471-2.603,6.942-2.603,10.414,0l34.712,26.034c2.603,1.736,3.471,5.207,3.471,8.678l-8.678,52.068
		C492.776,330.63,489.305,334.102,484.966,334.102z M439.841,316.746h37.315l6.942-39.051l-25.166-19.092l-25.166,19.092
		L439.841,316.746z"/>
	<path d="M372.153,229.966c-1.736,0-3.471-0.868-5.207-1.736c-1.736-1.736-3.471-4.339-3.471-6.942v-43.39
		c0-2.603,0.868-4.339,2.603-6.075l78.102-78.102c1.736-1.736,4.339-2.603,6.942-2.603c2.603,0,5.207,1.736,6.075,3.471
		l52.068,69.424c1.736,2.603,1.736,5.207,1.736,7.81c-0.868,2.603-2.603,4.339-5.207,6.075l-130.169,52.068
		C374.756,229.966,373.02,229.966,372.153,229.966z M380.831,181.369v26.902l107.607-42.522l-39.051-52.068L380.831,181.369z"/>
	<path d="M171.692,386.169H42.39c-5.207,0-8.678-3.471-8.678-8.678c0-5.207,3.471-8.678,8.678-8.678h129.302
		c5.207,0,8.678,3.471,8.678,8.678C180.369,382.698,176.898,386.169,171.692,386.169z"/>
	<path d="M48.464,282.034H16.356c-5.207,0-8.678-3.471-8.678-8.678s3.471-8.678,8.678-8.678h32.108c5.207,0,8.678,3.471,8.678,8.678
		S53.671,282.034,48.464,282.034z"/>
	<path d="M48.464,334.102H16.356c-5.207,0-8.678-3.471-8.678-8.678c0-5.207,3.471-8.678,8.678-8.678h32.108
		c5.207,0,8.678,3.471,8.678,8.678C57.142,330.63,53.671,334.102,48.464,334.102z"/>
	<path d="M241.983,282.034H111.814c-5.207,0-8.678-3.471-8.678-8.678s3.471-8.678,8.678-8.678h130.169
		c5.207,0,8.678,3.471,8.678,8.678S247.19,282.034,241.983,282.034z"/>
	<path d="M302.729,334.102H163.881c-5.207,0-8.678-3.471-8.678-8.678c0-5.207,3.471-8.678,8.678-8.678h138.847
		c5.207,0,8.678,3.471,8.678,8.678C311.407,330.63,307.936,334.102,302.729,334.102z"/>
	<path d="M241.983,429.559H77.102c-5.207,0-8.678-3.471-8.678-8.678c0-5.207,3.471-8.678,8.678-8.678h164.881
		c5.207,0,8.678,3.471,8.678,8.678C250.661,426.088,247.19,429.559,241.983,429.559z"/>
	<path d="M268.017,229.966h-86.78c-5.207,0-8.678-3.471-8.678-8.678c0-5.207,3.471-8.678,8.678-8.678h86.78
		c5.207,0,8.678,3.471,8.678,8.678C276.695,226.495,273.224,229.966,268.017,229.966z"/>
	<path d="M276.695,386.169h-52.068c-5.207,0-8.678-3.471-8.678-8.678c0-5.207,3.471-8.678,8.678-8.678h52.068
		c5.207,0,8.678,3.471,8.678,8.678C285.373,382.698,281.902,386.169,276.695,386.169z"/>
	<path d="M103.136,229.966h-86.78c-5.207,0-8.678-3.471-8.678-8.678c0-5.207,3.471-8.678,8.678-8.678h86.78
		c5.207,0,8.678,3.471,8.678,8.678C111.814,226.495,108.342,229.966,103.136,229.966z"/>
	<path d="M83.176,143.186H51.068c-5.207,0-8.678-3.471-8.678-8.678c0-5.207,3.471-8.678,8.678-8.678h32.108
		c5.207,0,8.678,3.471,8.678,8.678C91.854,139.715,88.383,143.186,83.176,143.186z"/>
	<path d="M276.695,143.186H146.525c-5.207,0-8.678-3.471-8.678-8.678c0-5.207,3.471-8.678,8.678-8.678h130.169
		c5.207,0,8.678,3.471,8.678,8.678C285.373,139.715,281.902,143.186,276.695,143.186z"/>
	<path d="M189.915,91.119h-86.78c-5.207,0-8.678-3.471-8.678-8.678c0-5.207,3.471-8.678,8.678-8.678h86.78
		c5.207,0,8.678,3.471,8.678,8.678S195.122,91.119,189.915,91.119z"/>
	<path d="M187.312,186.576H25.034c-5.207,0-8.678-3.471-8.678-8.678c0-5.207,3.471-8.678,8.678-8.678h162.278
		c5.207,0,8.678,3.471,8.678,8.678C195.99,183.105,191.651,186.576,187.312,186.576z"/>
	<path d="M233.305,498.983C104.003,498.983-1,393.98-1,264.678S104.003,30.373,233.305,30.373c28.637,0,56.407,5.207,82.441,14.753
		c2.603,0.868,4.339,2.603,5.207,5.207c0.868,2.603,0,5.207-0.868,7.81l-41.654,59.878l23.431,47.729
		c0.868,2.603,0.868,5.207,0,6.942l-21.695,51.2l59.878,14.753c3.471,0.868,6.075,3.471,6.075,6.942l7.81,47.729l30.373,15.62
		c3.471,1.736,5.207,6.075,4.339,10.414l-17.356,60.746c-0.868,2.603-2.603,4.339-4.339,5.207l-46.861,23.431v64.217
		c0,0.868,0,2.603-0.868,3.471l-1.736,4.339c-0.868,2.603-2.603,4.339-5.207,4.339C287.108,494.644,260.207,498.983,233.305,498.983
		z M233.305,47.729c-119.756,0-216.949,97.193-216.949,216.949s97.193,216.949,216.949,216.949c23.431,0,46.861-3.471,69.424-11.281
		v-66.82c0-3.471,1.736-6.075,5.207-7.81l48.597-24.298l14.753-50.332L342.647,307.2c-2.603-0.868-4.339-3.471-4.339-6.075
		l-7.81-46.861l-64.217-15.62c-2.603-0.868-4.339-2.603-6.075-4.339c-0.868-2.603-0.868-5.207,0-6.942l24.298-57.275l-24.298-48.597
		c-1.736-2.603-0.868-6.075,0.868-8.678l38.183-54.671C277.563,51.2,255.868,47.729,233.305,47.729z"/>
	<path d="M406.864,490.305c-2.603,0-5.207-0.868-6.942-3.471l-26.034-34.712c-1.736-2.603-2.603-6.075-0.868-8.678l26.034-52.068
		c0.868-2.603,3.471-4.339,6.075-4.339l43.39-8.678c3.471-0.868,6.942,0.868,9.546,4.339l26.034,43.39
		c0.868,0,0.868,1.736,0.868,3.471v43.39c0,4.339-3.471,7.81-7.81,8.678l-69.424,8.678H406.864z M391.244,446.047l19.959,26.034
		l56.407-6.942v-32.976l-21.695-36.447l-32.976,6.942L391.244,446.047z"/>
</g>
</svg>
