<?xml version="1.0" encoding="iso-8859-1"?>
<!-- Generator: Adobe Illustrator 19.0.0, SVG Export Plug-In . SVG Version: 6.00 Build 0)  -->
<!-- License: CC0. Made by SVG Repo: https://www.svgrepo.com/svg/70066/user -->
<svg version="1.1" id="Layer_1" xmlns="http://www.w3.org/2000/svg" xmlns:xlink="http://www.w3.org/1999/xlink" x="0px" y="0px"
	 viewBox="0 0 512 512" style="enable-background:new 0 0 512 512;" xml:space="preserve">
<path style="fill:#29ABE2;" d="M338.717,345.202c17.112-17.112,39.301-26.032,61.719-26.801
	c-40.295-44.73-98.662-72.857-163.605-72.857c-121.583,0-220.146,98.562-220.146,220.146h313.943
	C303.149,429.718,305.829,378.09,338.717,345.202z"/>
<path style="fill:#FF1D25;" d="M468.487,345.202c-18.722-18.722-43.523-27.642-68.05-26.801
	c-22.417,0.769-44.606,9.688-61.719,26.801c-32.887,32.887-35.568,84.516-8.09,120.488c2.462,3.223,5.143,6.333,8.09,9.281
	c35.835,35.835,93.934,35.835,129.769,0C504.321,439.137,504.321,381.037,468.487,345.202z"/>
<circle style="fill:#29ABE2;" cx="236.827" cy="127.869" r="117.669"/>
<path d="M59.965,433.237c-0.788,0-1.59-0.092-2.392-0.285c-5.476-1.317-8.851-6.823-7.535-12.301
	c11.978-49.846,44.199-93.579,88.403-119.988c4.84-2.889,11.1-1.311,13.988,3.526c2.889,4.837,1.311,11.099-3.525,13.987
	c-39.522,23.609-68.326,62.697-79.03,107.24C68.751,430.095,64.573,433.237,59.965,433.237z"/>
<path d="M194.655,298.903c-4.618,0-8.803-3.158-9.916-7.847c-1.301-5.482,2.088-10.979,7.569-12.28
	c14.504-3.443,29.483-5.188,44.522-5.188c5.633,0,10.2,4.567,10.2,10.2c0,5.634-4.568,10.2-10.2,10.2
	c-13.455,0-26.849,1.56-39.81,4.636C196.228,298.814,195.436,298.903,194.655,298.903z"/>
<path d="M475.699,337.989c-19.549-19.549-45.125-29.477-70.802-29.801c-1.7-1.813-3.421-3.612-5.187-5.378
	c-29.765-29.765-66.243-50.374-106.018-60.428c42.052-20.966,71.01-64.417,71.01-114.511C364.703,57.364,307.341,0,236.831,0
	S108.958,57.364,108.958,127.872c0,50.094,28.958,93.545,71.01,114.511c-39.774,10.054-76.253,30.664-106.018,60.428
	C30.445,346.319,6.485,404.163,6.485,465.691c0,5.634,4.568,10.2,10.2,10.2h309.036c1.826,2.157,3.75,4.26,5.782,6.294
	C351.381,502.062,377.491,512,403.603,512c26.11,0,52.22-9.939,72.098-29.815l0,0C515.453,442.43,515.453,377.745,475.699,337.989z
	 M129.358,127.872c0-59.26,48.212-107.472,107.473-107.472s107.472,48.212,107.472,107.472s-48.212,107.473-107.472,107.473
	S129.358,187.133,129.358,127.872z M27.13,455.491c5.338-111.046,97.355-199.746,209.701-199.746
	c54.713,0,104.587,21.054,141.992,55.465c-17.351,4.318-33.781,13.241-47.319,26.78c-31.735,31.735-38.133,79.355-19.203,117.501
	H27.13z M461.274,467.759c-31.8,31.8-83.544,31.801-115.344,0s-31.8-83.544,0-115.344c15.902-15.902,36.784-23.851,57.673-23.851
	c20.884,0,41.774,7.952,57.672,23.85C493.074,384.215,493.074,435.959,461.274,467.759z"/>
<path d="M439.241,374.659c-3.983-3.983-10.44-3.983-14.426,0L402.4,397.074l-22.415-22.415c-3.984-3.983-10.441-3.983-14.426,0
	c-3.983,3.983-3.983,10.442,0,14.425l22.415,22.415l-22.415,22.415c-3.983,3.983-3.983,10.442,0,14.426
	c1.992,1.992,4.602,2.988,7.213,2.988c2.61,0,5.22-0.997,7.213-2.988l22.415-22.415l22.415,22.415
	c1.992,1.992,4.602,2.988,7.213,2.988c2.61,0,5.22-0.997,7.213-2.988c3.983-3.984,3.983-10.442,0-14.426l-22.415-22.415
	l22.415-22.415C443.224,385.101,443.224,378.642,439.241,374.659z"/>
</svg>
