<?xml version="1.0" ?>
<!-- License: CC0 License. Made by SVG Repo: https://www.svgrepo.com/svg/384365/folder-remove -->
<svg width="800px" height="800px" viewBox="0 -1 60 60" data-name="remove folder" id="remove_folder" xmlns="http://www.w3.org/2000/svg"><defs><style>
      .cls-1 {
        fill: #d9b78b;
      }

      .cls-1, .cls-2 {
        fill-rule: evenodd;
      }

      .cls-2 {
        fill: #9f4c4c;
      }
    </style></defs><path class="cls-1" d="M118,840a18,18,0,0,0-14.965,28H78V836a4,4,0,0,1,4-4h24.344a4.01,4.01,0,0,0,2.828-1.172l3.656-3.656A4.01,4.01,0,0,1,115.656,826H126a4,4,0,0,1,4,4v14.61A17.912,17.912,0,0,0,118,840Zm-6.635-17.544a5.972,5.972,0,0,0-1.951,1.3l-3.656,3.656a2,2,0,0,1-.656.436,1.967,1.967,0,0,1-.758.15H80a6,6,0,0,0-6,6v34a4,4,0,0,1-4-4V816a4,4,0,0,1,4-4H84.344a4.009,4.009,0,0,1,2.828,1.172l3.656,3.656A4.009,4.009,0,0,0,93.656,818H120a4,4,0,0,1,4,4H113.656A5.906,5.906,0,0,0,111.365,822.456Z" data-name="folder copy" id="folder_copy" transform="translate(-70 -812)"/><path class="cls-2" d="M117.875,846a12,12,0,1,1-12,12A12,12,0,0,1,117.875,846ZM112,860h12a2,2,0,0,0,0-4H112A2,2,0,0,0,112,860Z" data-name="add copy" id="add_copy" transform="translate(-70 -812)"/></svg>