<?xml version="1.0" encoding="iso-8859-1"?>
<!-- Generator: Adobe Illustrator 19.0.0, SVG Export Plug-In . SVG Version: 6.00 Build 0)  -->
<!-- License: CC0. Made by SVG Repo: https://www.svgrepo.com/svg/255997/file-delete -->
<svg version="1.1" id="Layer_1" xmlns="http://www.w3.org/2000/svg" xmlns:xlink="http://www.w3.org/1999/xlink" x="0px" y="0px"
	 viewBox="0 0 512 512" style="enable-background:new 0 0 512 512;" xml:space="preserve">
<polygon style="fill:#FFE777;" points="410.725,455.736 410.725,112.527 332.999,56.264 376.967,455.736 "/>
<polygon style="fill:#FFF1B1;" points="376.967,455.736 376.967,112.527 298.198,0 45.011,0 45.011,455.736 "/>
<polygon style="fill:#FEDC3D;" points="410.725,112.527 298.198,0 298.198,112.527 "/>
<g>
	<path style="fill:#BFA52E;" d="M340.396,191.297H115.341c-4.661,0-8.44-3.779-8.44-8.44s3.779-8.44,8.44-8.44h225.055
		c4.661,0,8.44,3.779,8.44,8.44S345.057,191.297,340.396,191.297z"/>
	<path style="fill:#BFA52E;" d="M340.396,236.308H115.341c-4.661,0-8.44-3.779-8.44-8.44c0-4.661,3.779-8.44,8.44-8.44h225.055
		c4.661,0,8.44,3.779,8.44,8.44C348.835,232.529,345.057,236.308,340.396,236.308z"/>
	<path style="fill:#BFA52E;" d="M227.868,281.319H115.341c-4.661,0-8.44-3.779-8.44-8.44c0-4.661,3.779-8.44,8.44-8.44h112.527
		c4.661,0,8.44,3.779,8.44,8.44C236.308,277.54,232.529,281.319,227.868,281.319z"/>
</g>
<path style="fill:#FE5F1A;" d="M354.462,286.945V512c62.149,0,112.527-50.379,112.527-112.527S416.611,286.945,354.462,286.945z"/>
<path style="fill:#FE834D;" d="M354.462,286.945c43.503,0,78.769,50.379,78.769,112.527S397.965,512,354.462,512
	c-62.149,0-112.527-50.379-112.527-112.527S292.313,286.945,354.462,286.945z"/>
<path style="fill:#FFFFFF;" d="M406.181,427.322l-27.849-27.849l27.849-27.849c6.592-6.592,6.592-17.279,0-23.87
	c-6.592-6.592-17.279-6.592-23.87,0l-27.849,27.849l-27.849-27.849c-6.592-6.592-17.279-6.592-23.87,0s-6.592,17.279,0,23.87
	l27.849,27.849l-27.849,27.849c-6.592,6.592-6.592,17.279,0,23.87c6.592,6.592,17.279,6.592,23.87,0l27.849-27.849l27.849,27.849
	c6.592,6.592,17.279,6.592,23.87,0C412.773,444.601,412.773,433.914,406.181,427.322z"/>
</svg>
