<?xml version="1.0" encoding="utf-8"?>
<!-- License: PD. Made by Mary Akveo: https://maryakveo.com/ -->
<svg fill="#000000" width="800px" height="800px" viewBox="0 0 24 24" id="delete-music-collection" data-name="Flat Color" xmlns="http://www.w3.org/2000/svg" class="icon flat-color"><path id="primary" d="M18,4V16a2,2,0,0,1-2,2H4a2,2,0,0,1-2-2V4A2,2,0,0,1,4,2H16A2,2,0,0,1,18,4Zm4,13V5a1,1,0,0,0-2,0V17a3,3,0,0,1-3,3H7a1,1,0,0,0,0,2H17A5,5,0,0,0,22,17Z" style="fill: rgb(0, 0, 0);"></path><path id="secondary" d="M11.41,10l1.42-1.41a1,1,0,1,0-1.42-1.42L10,8.59,8.59,7.17A1,1,0,0,0,7.17,8.59L8.59,10,7.17,11.41a1,1,0,0,0,0,1.42,1,1,0,0,0,.71.29,1,1,0,0,0,.71-.29L10,11.41l1.41,1.42a1,1,0,0,0,.71.29,1,1,0,0,0,.71-.29,1,1,0,0,0,0-1.42Z" style="fill: rgb(44, 169, 188);"></path></svg>