<?xml version="1.0" encoding="utf-8"?>

<!-- License: CC0 License. Made by SVG Repo: https://www.svgrepo.com/svg/474433/map-progress -->
<svg width="800px" height="800px" viewBox="0 0 1024 1024" class="icon"  version="1.1" xmlns="http://www.w3.org/2000/svg"><path d="M190.2848 243.2a23.04 23.04 0 0 1 32.6912-20.9152l170.4448 78.6432 184.1664-78.8992a23.04 23.04 0 0 1 15.7184-0.896l3.0208 1.152 179.7376 82.944a23.04 23.04 0 0 1 13.3888 20.9408V435.2h-46.08v-94.3104l-157.0816-72.4736-184.1408 78.9248a23.04 23.04 0 0 1-18.7136-0.256l-147.072-67.8912v364.0576l157.056 72.4992L512 664.9344v50.1248l-109.824 47.104a23.04 23.04 0 0 1-12.544 1.5872l-3.1488-0.7168-3.0208-1.1264-179.7632-82.9696a23.04 23.04 0 0 1-13.3888-20.9152z" fill="#ED892D" /><path d="M586.6752 220.16a23.04 23.04 0 0 1 22.8608 20.1472l0.1792 2.8928-0.0512 192h-46.08l0.0512-192a23.04 23.04 0 0 1 23.04-23.04zM393.088 303.104a23.04 23.04 0 0 1 22.8608 20.1728l0.1792 2.8928v414.7968a23.04 23.04 0 0 1-45.9008 2.8928l-0.1792-2.8928V326.1696a23.04 23.04 0 0 1 23.04-23.04z" fill="#F5C280" /><path d="M577.5872 222.0288a23.04 23.04 0 0 1 15.7184-0.896l3.0208 1.152 89.856 41.472a23.04 23.04 0 0 1-16.5888 42.88l-2.7136-1.024-80.5888-37.1968-184.1408 78.9248a23.04 23.04 0 0 1-15.6928 0.896l-3.0208-1.152-89.8816-41.472a23.04 23.04 0 0 1 16.6144-42.9056l2.688 1.0496 80.5632 37.1712 184.1664-78.8992zM512 664.9344v50.0992l-109.824 47.104a23.04 23.04 0 0 1-15.7184 0.896l-3.0208-1.1264-89.8816-41.472a23.04 23.04 0 0 1 16.6144-42.9056l2.688 1.024 80.5632 37.1968L512 664.9344z" fill="#ED892D" /><path d="M829.5936 454.4c11.904 0 21.6064 9.5232 21.6064 21.3248a21.4272 21.4272 0 0 1-18.8928 21.1712l-2.7136 0.1792-11.4944-0.0256v26.368a136.7552 136.7552 0 0 1-60.16 112.896l-5.12 3.328-0.6144 0.3328 0.6144 0.3584a137.216 137.216 0 0 1 64.6912 103.5776l0.4608 6.4512 0.128 6.2208v26.3424h11.52c10.0608 0 18.5344 6.8352 20.9152 16.0768l0.512 2.5856 0.1536 2.688a21.4272 21.4272 0 0 1-18.8928 21.1712l-2.7136 0.1536H527.2064a21.4784 21.4784 0 0 1-21.6064-21.3248c0-10.9056 8.2688-19.8656 18.8928-21.1712l2.7136-0.1792h11.4688v-26.3424c0-45.7728 23.0912-87.5776 60.16-112.896l5.7344-3.712-0.5888-0.3072a137.216 137.216 0 0 1-64.6912-103.5776l-0.4608-6.4512-0.128-6.2208-0.0256-26.368h-11.4688a21.5552 21.5552 0 0 1-20.9408-16.0512l-0.512-2.5856-0.1536-2.688c0-10.88 8.2688-19.84 18.8928-21.1712l2.7136-0.1536h302.3872zM678.4 661.8624c-51.5328 0-93.696 39.8336-96.384 89.7024l-0.128 5.0176-0.0256 26.3424h193.024v-26.3424c0-50.5088-40.4992-91.9552-91.392-94.592l-5.12-0.128z m96.4864-164.8128h-193.024v26.368c0 50.5088 40.5504 91.9808 91.392 94.592l5.12 0.128c51.5328 0 93.7216-39.8336 96.4096-89.7024l0.128-5.0176-0.0256-26.368z" fill="#BE4BDB" /></svg>