<?xml version="1.0" encoding="iso-8859-1"?>
<!-- Generator: Adobe Illustrator 19.0.0, SVG Export Plug-In . SVG Version: 6.00 Build 0)  -->
<!-- License: CC0. Made by SVG Repo: https://www.svgrepo.com/svg/210330/racing-finish-line -->
<svg version="1.1" id="Layer_1" xmlns="http://www.w3.org/2000/svg" xmlns:xlink="http://www.w3.org/1999/xlink" x="0px" y="0px"
	 viewBox="0 0 464.624 464.624" style="enable-background:new 0 0 464.624 464.624;" xml:space="preserve">
<g transform="translate(0 -1020.36)" shape-rendering="auto" image-rendering="auto" color-rendering="auto" color-interpolation="sRGB">
	<g>
		<path style="fill:#5A3392;" d="M441.415,1020.361c4.072,0.48,7.135,3.932,7.094,8.032v323.969h-15.937V1164.36H32.54v43.875
			H16.228l-0.157-176.968c0.284-5.762,2.177-10.757,7.656-10.907h1.688L441.415,1020.361L441.415,1020.361z M32.54,1224.237v23.998
			H16.259l-0.032-23.998H32.54L32.54,1224.237z M32.54,1264.235v212.031c0,10.73-16.085,10.73-16.094,0l-0.187-212.031H32.54
			L32.54,1264.235z M448.509,1368.36v24.002h-15.937v-24.002H448.509z M448.509,1408.36v67.906c1.043,11.623-16.981,11.623-15.937,0
			v-67.906H448.509z"/>
		<path style="fill:#3CDEF6;" d="M432.572,1036.362H32.54v111.969h400.031V1036.362z"/>
	</g>
	<path style="fill:#5A3392;" d="M393.352,1068.36c4.117,0.412,7.241,3.895,7.205,8.031v32.008c-0.048,4.396-3.634,7.932-8.031,7.914
		h-32.008c-4.397,0.018-7.984-3.518-8.032-7.914v-32.008c-0.017-4.418,3.552-8.014,7.97-8.031c0.02,0,0.041,0,0.061,0h32.008
		C392.801,1068.346,393.077,1068.346,393.352,1068.36L393.352,1068.36z"/>
	<path style="fill:#29A3EC;" d="M384.494,1084.422h-15.945v15.945h15.945V1084.422z"/>
	<path style="fill:#5A3392;" d="M297.328,1068.36c4.117,0.412,7.241,3.895,7.205,8.031v32.008c-0.048,4.396-3.634,7.932-8.032,7.914
		h-32.008c-4.397,0.018-7.984-3.518-8.031-7.914v-32.008c-0.017-4.418,3.552-8.014,7.97-8.031c0.02,0,0.041,0,0.061,0h32.008
		C296.777,1068.346,297.053,1068.346,297.328,1068.36L297.328,1068.36z"/>
	<path style="fill:#29A3EC;" d="M288.47,1084.422h-15.945v15.945h15.945V1084.422z"/>
	<path style="fill:#5A3392;" d="M201.305,1068.36c4.117,0.412,7.241,3.895,7.205,8.031v32.008c-0.048,4.396-3.634,7.932-8.032,7.914
		H168.47c-4.351-0.047-7.867-3.563-7.913-7.914v-32.008c-0.017-4.396,3.517-7.982,7.913-8.031h32.008
		C200.753,1068.346,201.029,1068.346,201.305,1068.36L201.305,1068.36z"/>
	<path style="fill:#29A3EC;" d="M192.565,1084.422h-16.063v15.945h16.063V1084.422z"/>
	<path style="fill:#5A3392;" d="M441.305,1020.406c4.072,0.407,7.181,3.821,7.205,7.914v32.009c0.017,4.418-3.552,8.014-7.97,8.031
		c-0.02,0-0.041,0-0.061,0H408.47c-4.396-0.049-7.93-3.635-7.913-8.031v-32.008c0.047-4.351,3.562-7.867,7.913-7.914h32.008
		C440.753,1020.392,441.029,1020.392,441.305,1020.406L441.305,1020.406z"/>
	<path style="fill:#29A3EC;" d="M432.565,1036.351h-16.063v16.063h16.063V1036.351z"/>
	<path style="fill:#5A3392;" d="M345.281,1020.406c4.072,0.407,7.181,3.821,7.205,7.914v32.009c0.017,4.418-3.552,8.014-7.97,8.031
		c-0.02,0-0.041,0-0.061,0h-31.89c-4.419,0.018-8.014-3.551-8.031-7.971c0-0.02,0-0.041,0-0.061v-32.008
		c0.048-4.396,3.634-7.932,8.031-7.914h31.89C344.73,1020.392,345.006,1020.392,345.281,1020.406L345.281,1020.406z"/>
	<path style="fill:#29A3EC;" d="M336.541,1036.351h-16.063v16.063h16.063V1036.351z"/>
	<path style="fill:#5A3392;" d="M249.257,1020.406c4.072,0.407,7.181,3.821,7.205,7.914v32.009c0.017,4.396-3.517,7.982-7.913,8.031
		h-32.008c-4.419,0.018-8.015-3.551-8.032-7.971c0-0.02,0-0.041,0-0.061v-32.008c0.048-4.396,3.634-7.932,8.032-7.914h32.008
		C248.785,1020.396,249.021,1020.396,249.257,1020.406L249.257,1020.406z"/>
	<path style="fill:#29A3EC;" d="M240.517,1036.351h-16.063v16.063h16.063V1036.351z"/>
	<path style="fill:#5A3392;" d="M153.352,1020.406c4.072,0.407,7.181,3.821,7.205,7.914v32.009c0.017,4.418-3.552,8.014-7.97,8.031
		c-0.02,0-0.041,0-0.061,0h-32.008c-4.419,0.018-8.015-3.551-8.032-7.971c0-0.02,0-0.041,0-0.061v-32.008
		c0.048-4.396,3.634-7.932,8.032-7.914h32.008C152.801,1020.392,153.077,1020.392,153.352,1020.406L153.352,1020.406z"/>
	<path style="fill:#29A3EC;" d="M144.494,1036.351h-15.945v16.063h15.945L144.494,1036.351L144.494,1036.351z"/>
	<path style="fill:#5A3392;" d="M57.328,1020.406c4.072,0.407,7.181,3.821,7.205,7.914v32.009c0.017,4.418-3.552,8.014-7.97,8.031
		c-0.02,0-0.041,0-0.061,0H24.494c-4.419,0.018-8.014-3.551-8.031-7.971c0-0.02,0-0.041,0-0.061v-32.008
		c0.048-4.396,3.634-7.932,8.031-7.914h32.008C56.777,1020.392,57.053,1020.392,57.328,1020.406L57.328,1020.406z"/>
	<path style="fill:#29A3EC;" d="M48.47,1036.351H32.525v16.063H48.47V1036.351z"/>
	<path style="fill:#5A3392;" d="M105.281,1068.36c4.117,0.412,7.241,3.895,7.205,8.031v32.008c-0.048,4.396-3.634,7.932-8.031,7.914
		h-31.89c-4.397,0.018-7.984-3.518-8.031-7.914v-32.008c-0.017-4.418,3.552-8.014,7.97-8.031c0.02,0,0.041,0,0.061,0h31.89
		C104.73,1068.346,105.006,1068.346,105.281,1068.36L105.281,1068.36z"/>
	<path style="fill:#29A3EC;" d="M96.541,1084.422H80.478v15.945h16.063C96.541,1100.368,96.541,1084.422,96.541,1084.422z"/>
	<path style="fill:#5A3392;" d="M440.478,1116.311c4.419-0.018,8.015,3.551,8.032,7.971c0,0.02,0,0.041,0,0.061v32.008
		c0.017,4.418-3.552,8.014-7.97,8.031c-0.02,0-0.041,0-0.061,0H408.47c-4.396-0.049-7.93-3.635-7.913-8.031v-32.008
		c-0.017-4.396,3.517-7.982,7.913-8.031H440.478z"/>
	<path style="fill:#29A3EC;" d="M432.565,1132.376h-16.063v15.943h16.063V1132.376z"/>
	<path style="fill:#5A3392;" d="M344.454,1116.311c4.419-0.018,8.014,3.551,8.031,7.971c0,0.02,0,0.041,0,0.061v32.008
		c0.017,4.418-3.552,8.014-7.97,8.031c-0.02,0-0.041,0-0.061,0h-31.89c-4.419,0.018-8.014-3.551-8.031-7.971c0-0.02,0-0.041,0-0.061
		v-32.008c-0.017-4.418,3.552-8.014,7.97-8.031c0.02,0,0.041,0,0.061,0H344.454z"/>
	<path style="fill:#29A3EC;" d="M336.541,1132.376h-16.063v15.943h16.063V1132.376z"/>
	<path style="fill:#5A3392;" d="M248.549,1116.311c4.396,0.049,7.93,3.635,7.913,8.031v32.008c0.017,4.396-3.517,7.982-7.913,8.031
		h-32.008c-4.419,0.018-8.015-3.551-8.032-7.971c0-0.02,0-0.041,0-0.061v-32.008c-0.017-4.418,3.552-8.014,7.97-8.031
		c0.02,0,0.041,0,0.061,0H248.549z"/>
	<path style="fill:#29A3EC;" d="M240.517,1132.376h-16.063v15.943h16.063V1132.376z"/>
	<path style="fill:#5A3392;" d="M152.525,1116.311c4.419-0.018,8.014,3.551,8.031,7.971c0,0.02,0,0.041,0,0.061v32.008
		c0.017,4.418-3.552,8.014-7.97,8.031c-0.02,0-0.041,0-0.061,0h-32.008c-4.419,0.018-8.015-3.551-8.032-7.971
		c0-0.02,0-0.041,0-0.061v-32.008c-0.017-4.418,3.552-8.014,7.97-8.031c0.02,0,0.041,0,0.061,0H152.525z"/>
	<path style="fill:#29A3EC;" d="M144.494,1132.376h-15.945v15.943h15.945L144.494,1132.376L144.494,1132.376z"/>
	<path style="fill:#5A3392;" d="M56.502,1116.311c4.419-0.018,8.015,3.551,8.032,7.971c0,0.02,0,0.041,0,0.061v32.008
		c0.017,4.418-3.552,8.014-7.97,8.031c-0.02,0-0.041,0-0.061,0H24.494c-4.419,0.018-8.014-3.551-8.031-7.971c0-0.02,0-0.041,0-0.061
		v-32.008c-0.017-4.418,3.552-8.014,7.97-8.031c0.02,0,0.041,0,0.061,0H56.502z"/>
	<path style="fill:#29A3EC;" d="M48.47,1132.376H32.525v15.943H48.47V1132.376z"/>
	<g>
		<g>
			<path style="fill:#5A3392;" d="M71.79,1228.362c0.302-0.018,0.605-0.018,0.906,0h319.719c0.271-0.014,0.542-0.014,0.812,0
				c4.385,0.541,7.501,4.535,6.959,8.922c-0.487,3.945-3.797,6.934-7.772,7.018H258.759l12.75,32.031h1.125
				c14.457,0,25.761,13.107,23.625,27.404l-11.938,80.063c-1.754,11.748-11.965,20.563-23.844,20.563h-55.875
				c-11.879,0-22.089-8.814-23.844-20.563l-11.937-80.063c-2.136-14.297,9.168-27.404,23.625-27.404h1.032l12.844-32.031H72.697
				c-4.402,0.383-8.281-2.877-8.663-7.279c-0.382-4.402,2.877-8.281,7.279-8.662c0.159-0.014,0.318-0.023,0.477-0.027
				L71.79,1228.362z"/>
			<path style="fill:#5A3392;" d="M233.431,1196.391c4.115,0.473,7.19,4.008,7.087,8.148v27.873c-0.002,4.436-3.6,8.029-8.035,8.027
				c-4.433-0.002-8.025-3.594-8.028-8.027v-27.873c-0.115-4.418,3.373-8.092,7.79-8.205
				C232.641,1196.323,233.037,1196.342,233.431,1196.391z"/>
			<path style="fill:#5A3392;" d="M248.903,1388.319c2.961,0.148,5.597,1.922,6.85,4.607l31.89,63.781
				c2.27,3.791,1.036,8.705-2.755,10.975c-3.791,2.27-8.705,1.035-10.974-2.756c-0.217-0.361-0.405-0.74-0.562-1.133l-31.89-63.779
				c-2.045-3.918-0.527-8.75,3.391-10.795C246.1,1388.569,247.497,1388.258,248.903,1388.319z"/>
			<path style="fill:#5A3392;" d="M305.478,1436.391c4.115,0.473,7.19,4.008,7.087,8.148v15.709c-0.002,4.436-3.6,8.029-8.035,8.027
				c-4.433-0.002-8.025-3.594-8.028-8.027v-15.709c-0.115-4.418,3.373-8.092,7.79-8.205
				C304.688,1436.323,305.085,1436.342,305.478,1436.391z"/>
			<path style="fill:#5A3392;" d="M216.305,1388.319c4.417-0.125,8.099,3.354,8.224,7.771c0.039,1.361-0.272,2.713-0.902,3.922
				l-31.89,63.779c-1.641,4.104-6.297,6.1-10.4,4.459s-6.099-6.297-4.458-10.4c0.158-0.395,0.347-0.777,0.566-1.143l31.89-63.781
				C210.609,1390.204,213.301,1388.424,216.305,1388.319L216.305,1388.319z"/>
			<path style="fill:#5A3392;" d="M161.383,1436.391c4.115,0.473,7.19,4.008,7.087,8.148v15.709c0.372,4.402-2.896,8.273-7.3,8.645
				c-4.403,0.373-8.274-2.896-8.645-7.299c-0.038-0.447-0.038-0.898,0-1.346v-15.709c-0.107-4.418,3.387-8.086,7.804-8.193
				C160.681,1436.339,161.034,1436.354,161.383,1436.391z"/>
			<path style="fill:#5A3392;" d="M345.517,1228.399c4.386,0.533,7.51,4.521,6.977,8.908c-0.003,0.021-0.006,0.045-0.009,0.068
				l-16.063,139.842c-0.062,4.418-3.693,7.949-8.112,7.889c-4.418-0.063-7.95-3.693-7.889-8.111
				c0.007-0.521,0.065-1.039,0.173-1.549l15.945-139.844c0.405-4.4,4.301-7.639,8.701-7.232
				C345.334,1228.378,345.426,1228.387,345.517,1228.399z"/>
			<path style="fill:#5A3392;" d="M121.344,1228.399c3.772,0.418,6.732,3.426,7.087,7.205l16.063,139.842
				c0.49,4.402-2.683,8.369-7.086,8.859s-8.369-2.684-8.859-7.086l0,0l-15.945-139.844c-0.561-4.383,2.537-8.391,6.92-8.953
				C120.128,1228.346,120.738,1228.339,121.344,1228.399L121.344,1228.399z"/>
			<path style="fill:#5A3392;" d="M361.226,1372.374c4.388,0.52,7.524,4.498,7.005,8.887c-0.472,3.982-3.82,7.002-7.831,7.059
				h-79.724c-4.403,0.371-8.273-2.898-8.643-7.303c-0.37-4.402,2.899-8.271,7.302-8.643c0.446-0.037,0.895-0.037,1.341,0h79.724
				C360.675,1372.36,360.951,1372.36,361.226,1372.374z"/>
			<path style="fill:#5A3392;" d="M185.242,1372.374c4.388,0.52,7.524,4.498,7.005,8.887c-0.472,3.982-3.82,7.002-7.831,7.059
				h-79.843c-4.403,0.371-8.273-2.898-8.643-7.303c-0.37-4.402,2.899-8.271,7.302-8.643c0.446-0.037,0.895-0.037,1.341,0h79.843
				C184.69,1372.36,184.966,1372.36,185.242,1372.374z"/>
		</g>
		<g>
			<path style="fill:#EE746C;" d="M223.602,1244.333h17.969l12.844,32.031h-43.563L223.602,1244.333z"/>
			<path style="fill:#EE746C;" d="M192.477,1292.422h80.187c4.974,0,8.516,4.053,7.781,8.971l-11.906,80.063
				c-0.599,4.027-3.96,6.875-8.031,6.875h-55.875c-4.072,0-7.43-2.85-8.031-6.875l-11.937-80.063
				C183.93,1296.469,187.504,1292.422,192.477,1292.422L192.477,1292.422z"/>
		</g>
		<g>
			<path style="fill:#FB9761;" d="M232.883,1244.331v32.031h21.531l-12.844-32.031H232.883L232.883,1244.331z"/>
			<path style="fill:#FB9761;" d="M232.883,1292.422v95.906h27.625c4.072,0,7.433-2.848,8.031-6.875l11.906-80.063
				c0.734-4.918-2.807-8.969-7.781-8.969H232.883z"/>
		</g>
	</g>
	<path style="fill:#5A3392;" d="M232.486,1308.36c13.16,0,23.976,10.816,23.976,23.977c0,13.16-10.816,23.977-23.976,23.977
		c-13.16,0-23.976-10.816-23.976-23.977C208.51,1319.176,219.326,1308.36,232.486,1308.36z"/>
	<path style="fill:#FFFFFF;" d="M232.486,1324.422c-4.513,0-8.031,3.398-8.031,7.914c0,4.512,3.518,8.031,8.031,8.031
		c4.513,0,8.031-3.52,8.032-8.031C240.517,1327.827,236.999,1324.422,232.486,1324.422z"/>
	<g>
		<path style="fill:#5A3392;" d="M213.352,1324.422c4.388,0.52,7.524,4.498,7.005,8.887c-0.472,3.982-3.82,7.002-7.831,7.059
			h-43.937c-4.403,0.371-8.273-2.898-8.643-7.303c-0.37-4.402,2.899-8.271,7.302-8.643c0.446-0.037,0.895-0.037,1.341,0h43.937
			C212.801,1324.409,213.077,1324.409,213.352,1324.422L213.352,1324.422z"/>
		<path style="fill:#5A3392;" d="M297.21,1324.422c4.388,0.52,7.524,4.498,7.005,8.887c-0.472,3.982-3.82,7.002-7.831,7.059h-43.819
			c-4.403,0.371-8.273-2.898-8.643-7.303c-0.37-4.402,2.899-8.271,7.302-8.643c0.446-0.037,0.895-0.037,1.341,0h43.819
			C296.659,1324.409,296.935,1324.409,297.21,1324.422z"/>
	</g>
</g>
</svg>
