<?xml version="1.0" encoding="utf-8"?>
<!-- Generator: Adobe Illustrator 24.1.1, SVG Export Plug-In . SVG Version: 6.00 Build 0)  -->
<svg version="1.1" id="Layer_1" xmlns="http://www.w3.org/2000/svg" xmlns:xlink="http://www.w3.org/1999/xlink" x="0px" y="0px"
	 viewBox="0 0 1024 1024" style="enable-background:new 0 0 1024 1024;" xml:space="preserve">
<style type="text/css">
	.st0{fill:url(#SVGID_1_);}
	.st1{fill:#FFFFFF;}
</style>
<linearGradient id="SVGID_1_" gradientUnits="userSpaceOnUse" x1="0" y1="525" x2="1024" y2="525">
	<stop  offset="0" style="stop-color:#FE7356"/>
	<stop  offset="1" style="stop-color:#F64B3B"/>
</linearGradient>
<rect y="285" class="st0" width="1024" height="480"/>
<g>
	<path class="st1" d="M179.58,376.62c0,9.55,0,18.75,0,28.36c-28.95,0.66-53.97,10.55-74.81,30.5
		c-20.75,19.87-31.19,44.6-33.88,73.29c-9.34,0.39-18.35,0.29-27.36-0.25c-0.68-1.45-0.53-2.48-0.48-3.51
		c0.81-18.35,6.08-35.55,14.15-51.86c7.2-14.56,16.83-27.35,28.68-38.64c16.01-15.24,34.63-25.71,55.54-32.28
		c5.43-1.7,11.26-2.13,16.7-3.81C165.07,376.29,172.08,376.74,179.58,376.62z M244.08,518.49c-0.78,20.82-11.24,36.68-27.89,48.42
		c-17.03,12.01-36.09,13.83-56.4,8c0,10.56,0,20.5,0,30.34c52.81,13.41,111.38-26.13,113.88-86.55
		C271.58,517.39,247.76,517.18,244.08,518.49z M241.16,407.71c5.18,3.59,10.66,6.81,15.44,10.86c15.27,12.93,28.13,27.76,35.8,46.63
		c2.63,6.47,5.53,12.88,7.08,19.65c3.17,13.85,4.87,27.74,3.45,42.18c-1.81,18.31-7.94,35-16.26,50.97
		c-6.12,11.76-15.14,21.62-24.89,30.48c-12.48,11.35-26.89,19.95-42.99,25.17c-33.9,11-66.92,8.54-98.55-8.06
		c-14.41-7.56-27.03-17.54-37.22-30.42c-7.49-9.45-14.44-19.14-18.83-30.54c-5.34-13.87-9.45-27.95-9.7-42.94
		c-0.02-1.34-0.03-2.8-1.46-3.87c-1.74-0.47-3.62-0.58-5.47,0.14c-0.21,0.38-0.47,0.66-0.52,0.97c-0.1,0.56-0.12,1.13-0.09,1.7
		c0.56,14.26,3.39,28.01,8.44,41.41c7.51,19.9,19.08,37.09,34.76,51.24c17.11,15.44,36.99,26.08,59.74,30.86
		c39.33,8.27,75.44,0.74,107.7-23.13c13.16-9.74,24.4-21.53,32.92-35.96c7.95-13.47,14.84-27.32,17.32-42.69
		c3.07-19.04,3.27-38.22-0.85-57.32c-3.64-16.91-11.32-32.04-21.02-45.92c-10.01-14.33-22.58-26.46-37.97-35.27
		c-1-0.57-2.5-0.93-2.03-2.68c11.03-2.2,11.03-2.2,11.18-5.9c-8.34,0-16.68,0-25.12,0c0,8.05,0,16.02,0,24.23
		c7.41-1.96,4.89-8.16,5.94-12.52C239.62,406.69,240.42,407.19,241.16,407.71z M243,444.21c-17.68-15.87-38.54-23.87-62.67-23.89
		c0,10.15,0,19.75,0,29.68c17.03,0.69,31.82,6.03,43.96,17.84c11.96,11.64,19.4,25.44,19.72,42.5c10.26,0,19.6,0,29.83,0
		C272.3,483.8,262.45,461.67,243,444.21z M114.27,580.39c10.49,10.99,23.34,18.86,37.97,22.84c1.4-1.54,1.21-2.71,1.21-3.85
		c-0.02-6.98-0.47-14.01,0.11-20.94c0.41-4.93-1.77-7.36-5.58-9.4c-14.25-7.62-23.04-19.8-28.48-34.64
		c-1.84-5-2.97-10.22-3.14-16.03c-9.55-2.5-18.95-0.51-29.1-0.71C86.6,543.07,97.75,563.09,114.27,580.39z"/>
	<g>
		<g>
			<g>
				<path class="st1" d="M349.72,532.28c-7.48-22.09-14.92-44.04-22.45-66.26c5.31,0,10.21,0,15.54,0
					c4.41,14.36,8.86,28.86,13.31,43.35c0.22,0.05,0.44,0.11,0.66,0.16c4.81-14.52,9.62-29.03,14.47-43.67c4.21,0,8.29,0,12.58,0
					c4.79,14.5,9.56,28.91,14.32,43.31c0.26,0.04,0.52,0.09,0.79,0.13c4.44-14.42,8.87-28.84,13.32-43.31c5.02,0,9.81,0,15.15,0
					c-7.52,22.21-14.98,44.21-22.45,66.26c-4.26,0-8.24,0-12.71,0c-4.79-13.83-9.64-27.84-14.49-41.84
					c-0.25-0.06-0.5-0.12-0.75-0.19c-4.86,14-9.71,28-14.58,42.04C358.15,532.28,354.17,532.28,349.72,532.28z"/>
				<path class="st1" d="M783.23,498.65c0.09,19.42-15.25,34.43-35.2,34.45c-19.68,0.02-34.88-14.65-35.07-33.84
					c-0.19-19.32,15.23-34.52,35.1-34.61C767.97,464.56,783.14,479.22,783.23,498.65z M767.99,499.26
					c0.12-11.97-8.31-20.98-19.71-21.09c-11.41-0.1-19.86,8.44-20.09,20.32c-0.23,11.71,8.5,21.02,19.79,21.11
					C759.42,519.69,767.87,511.09,767.99,499.26z"/>
				<path class="st1" d="M552.36,531.61c-4.61-6.86-9.26-13.79-13.93-20.73c-3.75,0-7.37,0-11.35,0c0,6.99,0,13.8,0,20.82
					c-4.99,0-9.61,0-14.44,0c0-21.86,0-43.58,0-65.28c0.2-0.16,0.38-0.42,0.55-0.42c11.9-0.01,23.86-1.08,35.68,0.48
					c11.14,1.47,16.92,7.61,18.44,17.77c1.56,10.43-2.61,18.39-12.24,23.39c-0.39,0.2-0.76,0.44-1.5,0.87
					c5.22,7.65,10.35,15.18,15.76,23.1C563.57,531.61,558.19,531.61,552.36,531.61z M527.24,497.86c6.12,0.02,12.06,0.56,17.94-0.34
					c4.58-0.7,7.37-4.04,7.57-8.43c0.23-5.14-1.97-8.47-6.94-9.53c-6.16-1.32-12.41-0.4-18.57-0.55
					C527.24,485.53,527.24,491.55,527.24,497.86z"/>
				<path class="st1" d="M581.49,465.99c16.52,0,32.76,0,49.26,0c0,4.1,0,8.16,0,12.71c-11.51,0-23.11,0-34.91,0
					c0,4.65,0,8.82,0,13.34c10.25,0,20.39,0,30.75,0c0,4.41,0,8.47,0,12.99c-10.19,0-20.41,0-30.8,0c0,4.76,0,9.08,0,13.77
					c11.79,0,23.53,0,35.52,0c0,4.43,0,8.49,0,12.84c-16.47,0-33,0-49.83,0C581.49,509.91,581.49,488.12,581.49,465.99z"/>
				<path class="st1" d="M978.6,518.74c0,4.69,0,8.75,0,12.99c-16.73,0-33.27,0-50.01,0c0-21.91,0-43.63,0-65.61
					c16.46,0,32.87,0,49.45,0c0,4.17,0,8.22,0,12.64c-11.69,0-23.2,0-34.96,0c0,4.53,0,8.7,0,13.23c10.16,0,20.3,0,30.69,0
					c0,4.4,0,8.46,0,12.99c-10.09,0-20.32,0-30.74,0c0,4.76,0,9.07,0,13.76C954.76,518.74,966.49,518.74,978.6,518.74z"/>
				<path class="st1" d="M685.85,491.79c0-8.64,0-17.07,0-25.71c4.86,0,9.4,0,14.23,0c0,21.75,0,43.55,0,65.6
					c-4.56,0-9.18,0-14.11,0c0-8.62,0-17.17,0-26.03c-9.04,0-17.78,0-26.82,0c0,8.62,0,17.17,0,25.99c-4.92,0-9.53,0-14.42,0
					c0-21.77,0-43.57,0-65.57c4.72,0,9.34,0,14.28,0c0,8.63,0,17.06,0,25.72C667.97,491.79,676.63,491.79,685.85,491.79z"/>
				<path class="st1" d="M795.47,466.05c4.75,0,9.28,0,13.85,0c0.87,1.12,0.47,2.43,0.47,3.63c0.04,10.31,0.02,20.61,0.02,30.92
					c0,1.26-0.01,2.52,0.05,3.78c0.54,9.91,5.62,15.24,14.48,15.17c8.72-0.06,13.77-5.25,14.03-15.14
					c0.28-10.76,0.08-21.53,0.09-32.29c0-1.93,0-3.86,0-6.01c4.9,0,9.52,0,14.28,0c0.09,0.51,0.24,0.94,0.24,1.37
					c0.01,12.37,0.19,24.74-0.06,37.1c-0.36,18.05-10.36,27.9-28.33,28.35c-18.08,0.45-28.98-9.9-29.21-27.97
					c-0.16-12.25-0.04-24.5-0.03-36.76C795.34,467.53,795.42,466.87,795.47,466.05z"/>
				<path class="st1" d="M460.79,465.43c4.51,0,8.84,0,13.48,0c9.34,21.95,18.72,43.99,28.22,66.32c-5.25,0-10.1,0-15.15,0
					c-1.98-4.79-3.99-9.62-6.03-14.54c-9.29,0-18.41,0-27.91,0c-2,4.8-4.06,9.71-6.1,14.61c-4.86,0-9.53,0-14.75,0
					C442.04,509.51,451.41,487.49,460.79,465.43z M476.06,504.14c-2.88-7.03-5.61-13.69-8.72-21.28
					c-3.11,7.61-5.83,14.27-8.69,21.28C464.66,504.14,470.06,504.14,476.06,504.14z"/>
				<path class="st1" d="M863.4,522.24c2.88-3.45,5.57-6.69,8.39-10.07c2.24,1.45,4.34,2.98,6.58,4.23
					c5.34,2.99,11.02,4.44,17.15,3.17c2.87-0.59,5.18-1.99,5.63-5.2c0.47-3.32-1.59-5.05-4.27-6.26c-3.77-1.7-7.82-2.51-11.76-3.7
					c-2.62-0.79-5.24-1.63-7.78-2.64c-6.74-2.69-10.83-7.39-11.25-14.92c-0.46-8.3,2.47-14.78,9.91-18.86
					c10.48-5.74,27.31-3.36,37.58,5.43c-2.42,3.5-4.86,7.02-7.4,10.69c-4.76-2.87-9.31-5.48-14.64-6.23
					c-2.43-0.35-4.82-0.27-7.11,0.58c-2.15,0.8-3.73,2.18-3.93,4.7c-0.2,2.59,0.88,4.39,3.16,5.56c3.08,1.59,6.42,2.39,9.72,3.28
					c3.97,1.08,7.92,2.19,11.66,3.97c6.84,3.25,10.64,8.41,10.59,16.17c-0.05,8.03-3.27,14.18-10.62,17.78
					c-7.68,3.76-15.76,3.51-23.83,1.67C874.63,530.11,868.76,527.1,863.4,522.24z"/>
			</g>
		</g>
		<g>
			<g>
				<path class="st1" d="M349.53,569.56c3.56-5.67,6.83-10.88,10.08-16.04c2.91,0,5.64,0,8.69,0c0,12.64,0,25.17,0,37.89
					c-2.44,0.59-5.01,0.3-7.93,0.14c0-7.83,0-15.57,0-23.3c-0.26-0.11-0.53-0.21-0.79-0.32c-3.31,4.94-6.62,9.87-10.15,15.14
					c-3.43-5.16-6.71-10.07-10.6-15.91c0,8.69,0,16.42,0,24.35c-2.98,0-5.44,0-8.14,0c0-12.56,0-25.09,0-37.77
					c2.81-0.75,5.66-0.12,8.7-0.4C342.66,558.58,345.93,563.8,349.53,569.56z"/>
				<path class="st1" d="M614.65,553.57c3.1,0,5.82,0,8.79,0c0,12.7,0,25.22,0,37.95c-2.55,0-5.03,0-8,0c0-7.74,0-15.54,0-23.33
					c-0.28-0.08-0.56-0.15-0.83-0.23c-3.25,4.88-6.51,9.77-10.07,15.13c-3.46-5.19-6.76-10.14-10.63-15.94c0,8.66,0,16.34,0,24.13
					c-2.91,0.74-5.46,0.38-8.17,0.36c0-12.8,0-25.34,0-38.06c3.01,0,5.83,0,8.87,0c3.22,5.13,6.5,10.35,10.02,15.96
					C608.08,564.02,611.35,558.82,614.65,553.57z"/>
				<path class="st1" d="M447.48,553.54c3.03,0,5.4,0,8.03,0c0,12.66,0,25.18,0,37.91c-2.16,0.53-4.4,0.21-6.79,0.21
					c-5.96-7.81-11.92-15.6-18.49-24.21c0,8.56,0,16.21,0,24.07c-2.92,0-5.38,0-8.09,0c0-12.53,0-25.06,0-37.73
					c2.28-0.78,4.67-0.22,7.4-0.38c5.7,7.45,11.5,15.04,17.95,23.47C447.48,568.53,447.48,561.2,447.48,553.54z"/>
				<path class="st1" d="M703.74,591.63c-2.34,0-4.39,0-6.82,0c-2.9-3.79-5.95-7.77-9-11.75c-2.97-3.88-5.93-7.76-9.56-12.52
					c0,8.69,0,16.36,0,24.19c-2.92,0-5.38,0-8.06,0c0-12.62,0-25.15,0-37.81c2.39-0.64,4.77-0.23,7.47-0.3
					c5.69,7.46,11.48,15.04,17.27,22.62c0.23-0.07,0.47-0.14,0.7-0.21c0-7.34,0-14.69,0-22.23c2.86,0,5.31,0,7.99,0
					C703.74,566.25,703.74,578.77,703.74,591.63z"/>
				<path class="st1" d="M532.21,582.38c0.26-1.78,0.35-3.36-0.07-5.07c-2.48-1-5.19,0.01-7.84-0.72c-0.77-2.07-0.32-4.21-0.31-6.64
					c5.39,0,10.67,0,16.24,0c0,5.39,0,10.82,0,16.28c-8.67,8.05-23.03,8.23-30.8,0.35c-7.16-7.26-7.27-19.7-0.25-27.47
					c7.28-8.04,20.9-8.67,29.65-1.25c-1.17,2.34-3.16,4.08-4.89,6.39c-3.61-2.8-7.49-4.49-12.06-3.6c-2.7,0.53-4.86,1.93-6.53,4.1
					c-3.63,4.73-3.45,11.84,0.42,16.19C519.7,585.37,526.26,585.98,532.21,582.38z"/>
				<path class="st1" d="M549.33,553.54c9.49,0,18.73,0,28.11,0c0.86,2.23,0.36,4.48,0.37,7.04c-6.69,0-13.27,0-19.91,0
					c-0.92,2.74-0.27,5.22-0.54,8.09c6.01,0,11.79,0,17.57,0c0.85,2.5,0.29,4.66,0.52,7.18c-5.96,0-11.73,0-17.6,0
					c-0.73,2.92-0.38,5.47-0.36,8.36c6.95,0,13.65,0,20.5,0c0,2.59,0,4.83,0,7.29c-9.52,0-18.96,0-28.65,0
					C549.33,578.96,549.33,566.44,549.33,553.54z"/>
				<path class="st1" d="M659.82,576c-5.98,0-11.67,0-17.59,0c0,2.73,0,5.19,0,8.02c6.55,0,13.24,0,20.04,0
					c0.81,2.64,0.3,4.97,0.42,7.5c-9.69,0-19.13,0-28.8,0c0-12.59,0-25.11,0-37.88c9.37,0,18.7,0,28.21,0
					c0.74,2.19,0.21,4.43,0.38,6.98c-6.82,0-13.4,0-20.08,0c-0.72,2.75-0.37,5.22-0.27,8.09c5.84,0,11.62,0,17.49,0
					C660.18,571.22,659.96,573.35,659.82,576z"/>
				<path class="st1" d="M415.81,591.63c-3.15,0-5.77,0-8.69,0c-1.16-2.72-2.35-5.51-3.57-8.39c-5.38,0-10.6,0-16,0
					c-1.82,2.42-2.19,5.63-3.93,8.33c-2.55,0-5.16,0-8.3,0c5.44-12.81,10.8-25.44,16.22-38.21c2.57,0,5.05,0,7.97,0
					C404.81,565.82,410.2,578.48,415.81,591.63z M395.43,563.14c-1.82,4.47-3.34,8.22-4.98,12.25c3.5,0.37,6.49,0.48,9.92-0.09
					C398.75,571.34,397.26,567.67,395.43,563.14z"/>
				<path class="st1" d="M473.88,583.25c-1.15,2.77-2.29,5.49-3.45,8.29c-2.78,0-5.45,0-8.5,0c5.51-12.95,10.9-25.62,16.29-38.28
					c2.66,0,5.04,0,7.87,0c5.34,12.53,10.73,25.19,16.27,38.2c-3.08,0-5.84,0-8.73,0c-1.11-2.65-2.25-5.38-3.43-8.2
					C484.73,583.25,479.4,583.25,473.88,583.25z M477.04,575.37c3.53,0.42,6.52,0.48,10.01-0.05c-1.67-4.04-3.2-7.75-4.99-12.09
					C480.27,567.54,478.75,571.21,477.04,575.37z"/>
				<path class="st1" d="M722.49,561.12c-4.22,0-7.74,0-11.34,0c-0.87-2.56-0.47-4.91-0.32-7.49c10.44,0,20.79,0,31.33,0
					c0,2.34,0,4.58,0,7.04c-3.61,0.94-7.41-0.08-11.43,0.67c0,10.03,0,20.03,0,30.2c-2.85,0-5.33,0-8.23,0
					C722.49,581.58,722.49,571.59,722.49,561.12z"/>
			</g>
		</g>
		<g>
			<g>
				<path class="st1" d="M952,553.39c3.38,5.39,6.65,10.58,10.14,16.14c3.51-5.6,6.78-10.81,10.06-16.03
					c2.96-0.1,5.79-0.36,8.8,0.18c0,12.56,0,25.01,0,37.65c-2.51,0.74-5.09,0.3-8,0.26c0-7.83,0-15.58,0-23.32
					c-0.27-0.12-0.55-0.23-0.82-0.35c-3.3,4.92-6.61,9.83-10.15,15.11c-3.46-5.17-6.77-10.11-10.08-15.05
					c-0.21,0.06-0.42,0.11-0.63,0.17c0,7.7,0,15.4,0,23.32c-2.83,0-5.29,0-8.02,0c0-12.49,0-25.02,0-37.75
					C946.04,553.02,948.88,553.55,952,553.39z"/>
				<path class="st1" d="M906.04,591.49c0-12.67,0-25.12,0-37.83c9.43,0,18.75,0,28.26,0c0.84,2.1,0.31,4.35,0.34,6.91
					c-6.68,0-13.26,0-19.92,0c-0.88,2.74-0.38,5.21-0.4,8.08c5.86,0,11.63,0,17.39,0c0.91,2.5,0.31,4.66,0.57,7.19
					c-5.96,0-11.73,0-17.59,0c-0.77,2.92-0.39,5.47-0.39,8.36c6.94,0,13.64,0,20.5,0c0,2.59,0,4.83,0,7.29
					C925.31,591.49,915.87,591.49,906.04,591.49z"/>
				<path class="st1" d="M791.98,557.85c-1.42,2.04-2.71,3.9-4.1,5.91c-2.53-1.07-4.68-2.63-7.28-3.17
					c-1.48-0.31-2.93-0.52-4.42-0.2c-1.67,0.35-3.1,1.1-3.32,2.99c-0.22,1.88,0.91,3.05,2.55,3.61c2.92,0.99,5.91,1.78,8.83,2.77
					c6.94,2.38,9.46,5.79,8.96,11.96c-0.45,5.53-4.5,9.4-11.09,10.28c-7.18,0.95-13.5-1.06-19.11-5.91c1.68-2.01,3.2-3.83,4.7-5.62
					c2.13,1.16,3.96,2.3,5.91,3.2c2.44,1.13,5.05,1.56,7.71,1.01c1.72-0.36,3.34-1.12,3.56-3.2c0.22-2.1-1.17-3.15-2.88-3.74
					c-3.67-1.26-7.49-2.15-11.06-3.64c-6.26-2.62-8.37-9.61-4.91-15.43c1.61-2.7,4.07-4.3,7.02-5.16
					C779.14,551.72,786.66,553.4,791.98,557.85z"/>
				<path class="st1" d="M833.95,585.92c1.61-1.9,3.07-3.64,4.69-5.57c2.59,1.63,4.97,3.44,7.92,4.03c1.12,0.22,2.26,0.48,3.39,0.47
					c2.46-0.04,5.16-0.23,5.67-3.25c0.51-3.01-2.09-3.71-4.28-4.41c-2.83-0.92-5.74-1.59-8.52-2.62c-5.58-2.06-7.89-5.54-7.5-10.9
					c0.37-5.14,3.81-9.21,9.07-10.3c6.61-1.37,12.68,0,18.38,4.18c-1.16,2.3-2.58,4.26-4.24,6.17c-2.49-1.16-4.68-2.65-7.3-3.18
					c-1.6-0.32-3.16-0.47-4.75-0.02c-1.56,0.44-2.71,1.33-2.81,3.05c-0.1,1.55,0.76,2.67,2.13,3.21c1.8,0.71,3.69,1.2,5.53,1.82
					c2.16,0.73,4.37,1.36,6.46,2.27c4.04,1.75,6.27,4.77,6.27,9.34c0,4.68-1.91,8.16-6.09,10.31
					C851.02,594.09,840.09,592.07,833.95,585.92z"/>
				<path class="st1" d="M818.56,591.58c-3.62,0-6.1,0-9.07,0c0-3.85-0.1-7.58,0.03-11.3c0.08-2.39-0.49-4.4-1.82-6.42
					c-3.67-5.52-7.17-11.16-10.68-16.78c-0.64-1.03-1.6-1.94-1.66-3.49c2.96,0,5.87,0,9.17,0c2.87,4.77,5.87,9.74,9.12,15.13
					c3.19-5.24,6.2-10.18,9.24-15.16c3.01,0,5.91,0,9.4,0c-1.79,2.85-3.24,5.4-4.91,7.79C821.11,570.32,814.74,579.22,818.56,591.58
					z"/>
				<path class="st1" d="M888.06,561.04c0,10.47,0,20.39,0,30.49c-2.73,0-5.2,0-8.1,0c0-9.94,0-19.94,0-30.3c-4.03,0-7.64,0-11.3,0
					c-0.95-2.66-0.5-5.01-0.4-7.6c10.44,0,20.78,0,31.33,0c0,2.42,0,4.74,0,7.41C895.8,561.04,892.18,561.04,888.06,561.04z"/>
			</g>
		</g>
	</g>
	<path class="st1" d="M178.23,514.07c4.54,4.9,9.07,9.81,13.87,15c9.5-4.42,18.77-8.74,28.54-13.28c0,7.83,0,15.17,0,23.05
		c-14.04,6.98-28.31,14.08-43.17,21.46c0-15.77,0-30.76,0-45.76C177.73,514.39,177.98,514.23,178.23,514.07z M173.38,560.2
		c0-15.7,0-30.75,0-46.58c-5.48,5.19-9.31,10.8-14.65,15.32c-9.43-4.36-18.76-8.68-28.52-13.2c0,8.07,0,15.34,0,23.01
		C144.46,545.83,158.71,552.91,173.38,560.2z M221.11,489.44c-14.68,6.26-28.96,12.35-43.67,18.63c5.62,6.1,10.53,11.44,15.45,16.78
		c14.04-6.56,27.56-12.89,41.81-19.55C229.95,499.65,225.89,494.26,221.11,489.44z M158.25,524.87c5.11-5.6,10-10.96,15.37-16.85
		c-14.88-6.32-29.15-12.38-43.67-18.55c-4.82,4.95-8.92,10.2-13.54,15.87C130.61,511.96,144.32,518.36,158.25,524.87z M232.4,482.48
		c-12.77-4.26-25.53-8.54-38.67-11.55c-4.17-0.96-6.58,0.86-7.54,5.58c0.44,0.94,1.34,1.15,2.22,1.43
		c9.06,2.79,18.11,5.61,27.1,8.56c6.94,2.27,12.27-1.25,18.31-2.54C233.49,482.85,232.94,482.66,232.4,482.48z M125.68,486.48
		c1.96,0.64,3.93,1.61,6.01,0.95c10.03-3.16,20.28-5.63,30.19-9.2c1.99-0.72,3.05-1.87,2.99-4.11c-1.97-3.21-4.78-3.81-8.26-2.75
		c-12.14,3.72-24.26,7.51-36.56,10.67c-0.96,0.25-2.06,0.39-2.71,1.65C119.99,485.1,122.91,485.58,125.68,486.48z"/>
</g>
</svg>
